<svg width="26" height="26" viewBox="0 0 26 26" fill="none" xmlns="http://www.w3.org/2000/svg">
<path d="M8.7674 19.0183C8.16485 19.0076 7.57336 18.8495 7.04152 18.557C5.19922 17.5738 3.65843 16.0809 2.5916 14.2454C1.52478 12.4099 0.97401 10.3042 1.00094 8.16407L1.05925 2.94953C3.49305 1.63638 6.20458 0.966952 8.95078 1.00125C11.697 1.03556 14.392 1.77252 16.7943 3.14608L16.7477 7.14322" fill="black"/>
<path d="M8.7674 19.0183C8.16485 19.0076 7.57336 18.8495 7.04152 18.557C5.19922 17.5738 3.65843 16.0809 2.5916 14.2454C1.52478 12.4099 0.97401 10.3042 1.00094 8.16407L1.05925 2.94953C3.49305 1.63638 6.20458 0.966952 8.95078 1.00125C11.697 1.03556 14.392 1.77252 16.7943 3.14608L16.7477 7.14322" stroke="white" stroke-linecap="round" stroke-linejoin="round"/>
<path d="M15.4123 24.9027C14.8247 25.0402 14.214 25.0318 13.6302 24.8784C13.0464 24.725 12.5061 24.4309 12.0538 24.0203C10.4817 22.623 9.31755 20.8017 8.69177 18.7603C8.066 16.719 8.00331 14.5381 8.51072 12.4621L9.7371 7.40396C12.3993 6.70814 15.1873 6.70486 17.8511 7.39441C20.5148 8.08397 22.9711 9.44482 24.9999 11.355L23.7754 16.397C23.2817 18.4753 22.2384 20.3712 20.7617 21.8734C19.2851 23.3756 17.4331 24.423 15.4123 24.9027Z" fill="black" stroke="white" stroke-linecap="round" stroke-linejoin="round"/>
<path d="M18.1221 15.1776C18.7421 14.8928 19.5934 15.0312 20.0443 15.2639L18.1221 15.1776ZM14.1787 14.1086C13.7783 13.4949 12.9795 13.2864 12.4839 13.3666L14.1787 14.1086Z" fill="black"/>
<path d="M18.1221 15.1776C18.7421 14.8928 19.5934 15.0312 20.0443 15.2639M14.1787 14.1086C13.7783 13.4949 12.9795 13.2864 12.4839 13.3666" stroke="white" stroke-linecap="round" stroke-linejoin="round"/>
</svg>
