<svg width="488" height="500" viewBox="0 0 488 500" fill="none" xmlns="http://www.w3.org/2000/svg">
<path d="M321.319 43.77C321.319 43.77 249.632 22.14 178.823 65.89C108.014 109.64 71.9605 191.21 40.992 256.67C10.0235 322.13 27.1816 386.24 80.8323 413.17C134.483 440.1 171.376 394.57 246.918 388.63C322.461 382.69 342.703 392.35 405.645 347.03C468.587 301.71 480.563 201.57 431.597 130.39C382.631 59.21 321.319 43.77 321.319 43.77Z" fill="#9E171A"/>
<path opacity="0.8" d="M321.319 43.77C321.319 43.77 249.632 22.14 178.823 65.89C108.014 109.64 71.9605 191.21 40.992 256.67C10.0235 322.13 27.1816 386.24 80.8323 413.17C134.483 440.1 171.376 394.57 246.918 388.63C322.461 382.69 342.703 392.35 405.645 347.03C468.587 301.71 480.563 201.57 431.597 130.39C382.631 59.21 321.319 43.77 321.319 43.77Z" fill="white"/>
<path d="M70.2037 424.65C70.2037 424.65 46.0282 371.89 51.2791 370.37C56.53 368.85 67.5392 377.25 67.5392 377.25C67.5392 377.25 35.2336 288.55 43.598 281.67C51.9623 274.79 67.5783 310 67.5783 310C67.5783 310 50.8984 255.67 52.8602 235C54.822 214.33 76.0109 234.24 76.0109 234.24C76.0109 234.24 59.0383 160.07 74.8007 156.24C90.5631 152.41 90.036 241.11 90.036 241.11C90.036 241.11 95.2088 177.64 101.524 195.23C107.838 212.82 94.5647 271.69 94.5647 271.69C94.5647 271.69 103.222 251.81 108.033 270.16C112.845 288.51 98.4687 362.68 98.4687 362.68C98.4687 362.68 110.688 350.45 111.83 365.74C112.972 381.03 86.5322 428.44 86.5322 428.44L71.5701 430L70.2037 424.65Z" fill="#9E171A"/>
<path opacity="0.6" d="M70.2037 424.65C70.2037 424.65 46.0282 371.89 51.2791 370.37C56.53 368.85 67.5392 377.25 67.5392 377.25C67.5392 377.25 35.2336 288.55 43.598 281.67C51.9623 274.79 67.5783 310 67.5783 310C67.5783 310 50.8984 255.67 52.8602 235C54.822 214.33 76.0109 234.24 76.0109 234.24C76.0109 234.24 59.0383 160.07 74.8007 156.24C90.5631 152.41 90.036 241.11 90.036 241.11C90.036 241.11 95.2088 177.64 101.524 195.23C107.838 212.82 94.5647 271.69 94.5647 271.69C94.5647 271.69 103.222 251.81 108.033 270.16C112.845 288.51 98.4687 362.68 98.4687 362.68C98.4687 362.68 110.688 350.45 111.83 365.74C112.972 381.03 86.5322 428.44 86.5322 428.44L71.5701 430L70.2037 424.65Z" fill="white"/>
<path d="M75.3572 427C75.3572 427 55.2125 390.3 58.9408 383.41C62.6692 376.52 73.8639 392.59 73.8639 392.59C73.8639 392.59 48.4879 327.59 52.226 321.48C55.964 315.37 67.9005 342.13 67.9005 342.13C67.9005 342.13 63.4402 252.62 70.8773 255.67C78.3144 258.72 79.0562 301.55 79.0562 301.55C79.0562 301.55 74.5861 199.86 81.301 202.92C88.0159 205.98 87.2741 319.14 87.2741 319.14C87.2741 319.14 100.704 275.55 102.89 295.43C105.076 315.31 85.732 368.84 85.732 368.84C85.732 368.84 104.432 326.78 106.706 349C108.98 371.22 91.7442 412.42 91.7442 412.42C91.7442 412.42 98.4591 395.6 98.4591 404.77C98.4591 413.94 93.2375 425.42 93.2375 425.42" stroke="#263238" stroke-linecap="round" stroke-linejoin="round"/>
<path d="M50.1957 383.46L37.3418 426.86H72.1557L85.4 383.69L50.1957 383.46Z" fill="#263238" stroke="#263238" stroke-linecap="round" stroke-linejoin="round"/>
<path d="M131.37 426.79H58.8236L50.1958 383.46H122.742L131.37 426.79Z" fill="white" stroke="#263238" stroke-linecap="round" stroke-linejoin="round"/>
<path d="M123.894 419.46H63.3817L58.8628 396.79H119.375L123.894 419.46Z" stroke="#263238" stroke-linecap="round" stroke-linejoin="round"/>
<path d="M64.0645 396.88L68.5443 419.36" stroke="#263238" stroke-linecap="round" stroke-linejoin="round"/>
<path d="M69.6182 396.88L74.098 419.36" stroke="#263238" stroke-linecap="round" stroke-linejoin="round"/>
<path d="M75.1714 396.88L79.6512 419.36" stroke="#263238" stroke-linecap="round" stroke-linejoin="round"/>
<path d="M80.7153 396.88L85.1952 419.36" stroke="#263238" stroke-linecap="round" stroke-linejoin="round"/>
<path d="M86.2686 396.88L90.7484 419.36" stroke="#263238" stroke-linecap="round" stroke-linejoin="round"/>
<path d="M91.8223 396.88L96.3021 419.36" stroke="#263238" stroke-linecap="round" stroke-linejoin="round"/>
<path d="M97.3657 396.88L101.846 419.36" stroke="#263238" stroke-linecap="round" stroke-linejoin="round"/>
<path d="M102.919 396.88L107.399 419.36" stroke="#263238" stroke-linecap="round" stroke-linejoin="round"/>
<path d="M108.463 396.88L112.943 419.36" stroke="#263238" stroke-linecap="round" stroke-linejoin="round"/>
<path d="M114.017 396.88L118.496 419.36" stroke="#263238" stroke-linecap="round" stroke-linejoin="round"/>
<path d="M59.897 401.27H120.067" stroke="#263238" stroke-linecap="round" stroke-linejoin="round"/>
<path d="M60.7949 405.79H120.965" stroke="#263238" stroke-linecap="round" stroke-linejoin="round"/>
<path d="M61.7026 410.32H121.863" stroke="#263238" stroke-linecap="round" stroke-linejoin="round"/>
<path d="M62.6006 414.84H122.771" stroke="#263238" stroke-linecap="round" stroke-linejoin="round"/>
<path d="M85.2245 392.87H58.3552L57.9258 390.67H84.7853L85.2245 392.87Z" fill="#263238"/>
<path d="M451.888 316H364.38C360.262 316.1 356.315 317.705 353.25 320.525C350.186 323.346 348.207 327.196 347.671 331.38L336.935 428.61H439.415L451.888 316Z" fill="white" stroke="#263238" stroke-linecap="round" stroke-linejoin="round"/>
<path d="M452.346 316C448.925 316.083 445.646 317.416 443.1 319.76C440.555 322.104 438.912 325.303 438.468 328.78L427.429 428.61H452.356L463.405 328.78C463.632 327.171 463.514 325.53 463.059 323.972C462.605 322.414 461.823 320.977 460.771 319.76C459.718 318.543 458.419 317.577 456.964 316.927C455.509 316.278 453.933 315.961 452.346 316Z" fill="#263238" stroke="#263238" stroke-linecap="round" stroke-linejoin="round"/>
<path d="M336.027 286.79C329.877 291.289 323.23 295.028 316.224 297.93C303.799 303.23 298.802 304.83 298.802 304.83L302.248 426.63H392.449C392.449 426.63 380.884 350.26 380.884 324.63C380.884 299 381.918 294 381.918 294L352.248 286.22L336.027 286.79Z" fill="#9E171A" stroke="#263238" stroke-linecap="round" stroke-linejoin="round"/>
<path d="M326.189 291.92C323.376 312.607 321.708 333.44 321.192 354.32C320.674 385.61 326.54 427.32 326.54 427.32H260.455C268.673 411.392 274.55 394.308 277.896 376.62C282.776 351.29 286.68 308.35 287.715 307.82C288.749 307.29 323.778 294 326.189 291.92Z" fill="#263238" stroke="#263238" stroke-linecap="round" stroke-linejoin="round"/>
<path d="M296.177 427.33C296.177 427.33 289.442 380.66 289.784 369.7C290.126 358.74 291.824 321.62 291.824 321.62" stroke="#616161" stroke-linecap="round" stroke-linejoin="round"/>
<path d="M363.286 288.74C363.286 288.74 354.834 328.51 354.141 361.22C353.448 393.93 351.213 427.51 351.213 427.51H404.649C404.649 427.51 405.342 397.63 404.649 387.38C403.956 377.13 403.956 379.25 403.956 379.25L424.667 384.73C424.667 384.73 411.374 319.14 408.963 311.9C406.553 304.66 407.753 302.35 406.201 301.11C404.649 299.87 363.286 288.74 363.286 288.74Z" fill="#263238" stroke="#263238" stroke-linecap="round" stroke-linejoin="round"/>
<path d="M266.77 400.29C268.163 402.478 269.801 404.492 271.65 406.29C274.021 408.37 279.106 407.29 281.81 410.13C284.513 412.97 281.556 421.64 278.14 424.67C272.284 429.84 275.388 414.15 275.388 414.15C273.323 415.6 271.042 416.698 268.634 417.4C265.316 418.18 256.776 415.52 253.916 415.4C251.056 415.28 247.084 414.72 245.561 411.46C244.039 408.2 253.486 404.27 257.683 402.71C260.647 401.667 263.685 400.858 266.77 400.29Z" fill="white" stroke="#263238" stroke-linecap="round" stroke-linejoin="round"/>
<path d="M248.694 404.89C247.792 404.643 246.839 404.673 245.952 404.975C245.066 405.277 244.286 405.839 243.707 406.59C241.755 409.22 237.851 421.1 238.993 423.39C240.135 425.68 243.092 422.47 244.498 418.7C245.097 416.883 245.896 415.142 246.879 413.51C246.879 413.51 248.421 414.28 249.505 412.22C250.588 410.16 251.681 407.07 248.694 404.89Z" fill="white" stroke="#263238" stroke-linecap="round" stroke-linejoin="round"/>
<path d="M254.219 402.82C253.273 402.262 252.168 402.057 251.092 402.24C250.016 402.422 249.034 402.98 248.314 403.82C245.571 406.82 247.455 419.43 248.909 423.29C250.364 427.15 253.116 426.67 253.526 424.29C253.936 421.91 254.404 410.04 254.551 407.29C254.672 405.791 254.56 404.283 254.219 402.82Z" fill="white" stroke="#263238" stroke-linecap="round" stroke-linejoin="round"/>
<path d="M260.074 401.46C259.141 400.858 258.025 400.627 256.937 400.812C255.849 400.996 254.864 401.582 254.17 402.46C251.447 405.63 253.457 418.97 254.95 423.07C256.444 427.17 259.196 426.69 259.586 424.14C259.977 421.59 260.328 409.06 260.445 406.14C260.545 404.57 260.42 402.993 260.074 401.46Z" fill="white" stroke="#263238" stroke-linecap="round" stroke-linejoin="round"/>
<path d="M268.644 403.08C268.644 403.08 266.37 397.87 262.661 398.73C258.952 399.59 257.781 404.73 258.464 412.53C259.147 420.33 260.572 426.53 262.641 426.75C264.71 426.97 266.965 422.26 267.375 416.17C267.785 410.08 268.4 406.44 268.4 406.44" fill="white"/>
<path d="M268.644 403.08C268.644 403.08 266.37 397.87 262.661 398.73C258.952 399.59 257.781 404.73 258.464 412.53C259.147 420.33 260.572 426.53 262.641 426.75C264.71 426.97 266.965 422.26 267.375 416.17C267.785 410.08 268.4 406.44 268.4 406.44" stroke="#263238" stroke-linecap="round" stroke-linejoin="round"/>
<path d="M316.331 348.57H293.327V384.75H316.331V348.57Z" fill="#9E171A" stroke="#263238" stroke-linecap="round" stroke-linejoin="round"/>
<path d="M306.435 338.03H302.199V354.77H306.435V338.03Z" fill="white" stroke="#263238" stroke-linecap="round" stroke-linejoin="round"/>
<path d="M308.855 358.7H298.968V371.93H308.855V358.7Z" fill="white" stroke="#263238" stroke-linecap="round" stroke-linejoin="round"/>
<path d="M297.358 375.86H310.875" stroke="#263238" stroke-linecap="round" stroke-linejoin="round"/>
<path d="M295.337 378.75H312.691" stroke="#263238" stroke-linecap="round" stroke-linejoin="round"/>
<path d="M333.616 281.67C333.616 281.67 326.189 286.79 324.832 290.86C323.476 294.93 317.756 312.25 315.511 318.79C313.267 325.33 300.501 330.99 302.228 332.23C303.956 333.47 320.694 335.05 320.694 335.05C320.694 335.05 324.491 350.26 325.349 354.15C326.208 358.04 331.391 369.88 331.391 369.88C331.391 369.88 346.743 350.96 349.164 345.88C350.827 342.445 352.728 339.136 354.854 335.98C354.854 335.98 361.413 337.57 365.59 338.28C369.767 338.99 381.118 340.04 380.601 338.1C380.084 336.16 374.393 327.67 372.149 319.36C369.904 311.05 371.28 292.84 368.528 285.77C365.775 278.7 359.744 277.64 357.655 277.11C355.566 276.58 336.72 278.66 333.616 281.67Z" fill="#9E171A" stroke="#263238" stroke-linecap="round" stroke-linejoin="round"/>
<path d="M331.195 276.19C331.195 276.19 333.44 289.09 333.147 299.52C332.855 309.95 329.175 333.29 329.351 345.31C329.526 353.294 330.158 361.261 331.244 369.17C331.244 369.17 348.158 345.31 354.366 325.86C360.573 306.41 362.301 289.8 362.301 288.56C362.301 287.32 362.642 258.51 362.642 258.51C362.642 258.51 344.654 277.78 331.195 276.19Z" fill="white" stroke="#263238" stroke-linecap="round" stroke-linejoin="round"/>
<path d="M362.457 270.74C362.525 264.26 362.594 258.51 362.594 258.51C362.594 258.51 344.655 277.78 331.196 276.19C331.196 276.19 331.83 279.82 332.367 284.79C334.127 286.026 336.082 286.942 338.145 287.5C344.372 288.78 351.35 285.21 356.084 279.08C357.831 276.82 360.144 273.74 362.457 270.74Z" fill="#263238" stroke="#263238" stroke-linecap="round" stroke-linejoin="round"/>
<path d="M374.765 212.19C384.246 212.19 391.932 204.395 391.932 194.78C391.932 185.165 384.246 177.37 374.765 177.37C365.283 177.37 357.597 185.165 357.597 194.78C357.597 204.395 365.283 212.19 374.765 212.19Z" fill="#263238" stroke="#263238" stroke-linecap="round" stroke-linejoin="round"/>
<path d="M305.244 225.2C305.244 225.2 296.03 222.64 294.508 217.54C292.985 212.44 298.5 194.54 316.438 185.37C334.377 176.2 350.833 181.28 358.055 183.32C365.277 185.36 370.519 189.2 375.252 202.73C379.986 216.26 380.23 226.73 378.737 231.83C377.849 234.879 376.766 237.866 375.496 240.77C375.496 240.77 366.283 241.77 363.784 237.96C361.286 234.15 362.291 214.96 351.574 210.39C340.858 205.82 320.43 208.39 315.462 212.94C310.495 217.49 305.244 225.2 305.244 225.2Z" fill="#263238" stroke="#263238" stroke-linecap="round" stroke-linejoin="round"/>
<path d="M303.75 221.88C303.75 221.88 305.995 236.43 305.995 244.34C305.995 252.25 312.222 263.24 315.462 266.34C318.703 269.44 329.419 279.87 335.646 281.15C341.873 282.43 348.851 278.85 353.585 272.72C358.319 266.59 367.542 254.34 367.542 254.34C369.598 254.575 371.67 254.065 373.399 252.9C375.128 251.735 376.405 249.988 377.009 247.96C379.508 240.55 378.258 232.13 374.022 231.11C369.787 230.09 366.8 235.19 366.8 235.19C366.8 235.19 363.306 221.41 358.826 214.51L352.346 204.51L360.612 193.92C360.703 193.805 360.769 193.672 360.807 193.53C360.845 193.387 360.855 193.239 360.835 193.092C360.814 192.946 360.765 192.806 360.69 192.68C360.615 192.554 360.515 192.445 360.398 192.36C360.175 192.197 359.9 192.128 359.629 192.167C359.359 192.206 359.113 192.35 358.943 192.57L350.852 203.24C350.852 203.24 334.904 200.43 320.948 207.58C306.991 214.73 303.75 221.88 303.75 221.88Z" fill="white" stroke="#263238" stroke-linecap="round" stroke-linejoin="round"/>
<path d="M354.951 236.25L352.707 239.32" stroke="#263238" stroke-linecap="round" stroke-linejoin="round"/>
<path d="M324.188 253.79C324.188 253.79 324.686 255.32 327.926 256.09C329.438 256.45 331.019 256.353 332.478 255.81C333.937 255.266 335.211 254.301 336.144 253.03" stroke="#263238" stroke-linecap="round" stroke-linejoin="round"/>
<path d="M327.936 262C331.009 262.71 334.209 262.589 337.222 261.65C340.235 260.71 342.958 258.984 345.123 256.64C345.123 256.64 342.888 266.34 338.399 268.13C333.909 269.92 333.665 265.06 333.665 265.06L327.936 262Z" stroke="#263238" stroke-linecap="round" stroke-linejoin="round"/>
<path d="M336.896 242.56C338.96 240.568 341.473 239.13 344.211 238.373C346.949 237.616 349.827 237.563 352.59 238.22" stroke="#263238" stroke-width="2" stroke-linecap="round" stroke-linejoin="round"/>
<path d="M320.694 242.05C320.694 242.05 315.218 236.43 309.479 239.49" stroke="#263238" stroke-width="2" stroke-linecap="round" stroke-linejoin="round"/>
<path d="M307.742 238.22L310.475 241.03" stroke="#263238" stroke-linecap="round" stroke-linejoin="round"/>
<path d="M335.148 228.77C335.148 228.77 342.576 220 353.312 228.26" stroke="#263238" stroke-linecap="round" stroke-linejoin="round"/>
<path d="M320.196 228.51C320.196 228.51 313.472 223.15 306.737 229.28" stroke="#263238" stroke-linecap="round" stroke-linejoin="round"/>
<path d="M342.761 241.19C342.771 241.439 342.707 241.686 342.578 241.897C342.449 242.108 342.26 242.275 342.037 242.375C341.814 242.475 341.567 242.504 341.328 242.458C341.088 242.411 340.868 242.292 340.696 242.116C340.524 241.939 340.408 241.714 340.363 241.469C340.318 241.224 340.346 240.97 340.443 240.742C340.541 240.513 340.703 240.32 340.91 240.188C341.116 240.056 341.357 239.99 341.6 240C341.904 240.012 342.193 240.142 342.408 240.362C342.623 240.583 342.749 240.878 342.761 241.19Z" fill="#263238"/>
<path d="M314.272 240.12C314.274 240.366 314.205 240.606 314.073 240.812C313.941 241.017 313.753 241.177 313.532 241.273C313.311 241.368 313.067 241.394 312.832 241.347C312.596 241.301 312.38 241.183 312.209 241.01C312.039 240.837 311.923 240.616 311.876 240.376C311.828 240.135 311.851 239.885 311.943 239.658C312.034 239.431 312.189 239.236 312.388 239.1C312.588 238.963 312.822 238.89 313.062 238.89C313.381 238.89 313.687 239.019 313.914 239.25C314.141 239.48 314.269 239.793 314.272 240.12Z" fill="#263238"/>
<path d="M373.154 215.22C373.154 215.22 374.013 226.71 371.944 235.37L375.223 236.43C375.223 236.43 377.81 223.17 376.599 215.75L373.154 215.22Z" fill="#9E171A" stroke="#263238" stroke-linecap="round" stroke-linejoin="round"/>
<path d="M350.862 181.61C354.47 183.455 357.686 186.014 360.323 189.139C362.959 192.265 364.965 195.895 366.225 199.82C370.187 212.9 369.67 216.97 372.081 218.38C374.491 219.79 379.157 220.68 379.322 217.5C379.488 214.32 378.415 200.13 371.514 191.33C366.342 184.63 355.176 181.79 350.862 181.61Z" fill="#9E171A" stroke="#263238" stroke-linecap="round" stroke-linejoin="round"/>
<path d="M374.52 232.84C369.553 231.28 364.097 234.84 362.32 240.75C360.681 246.22 362.769 251.8 367.005 253.86C363.895 261.957 359.27 269.352 353.39 275.63C352.245 275.485 351.09 275.785 350.15 276.47C348.373 277.7 347.593 279.71 348.422 280.97C349.252 282.23 351.35 282.25 353.136 281.03C354.922 279.81 355.557 278.03 354.991 276.81C361.003 270.38 365.719 262.799 368.869 254.5C373.613 255.5 378.629 252.02 380.298 246.39C382.075 240.47 379.488 234.4 374.52 232.84Z" fill="#9E171A" stroke="#263238" stroke-linecap="round" stroke-linejoin="round"/>
<path d="M378.737 244.4C377.897 248.18 374.569 250.64 371.3 249.88C368.03 249.12 366.059 245.43 366.898 241.65C367.737 237.87 371.065 235.41 374.335 236.16C377.605 236.91 379.576 240.61 378.737 244.4Z" fill="#9E171A" stroke="#263238" stroke-linecap="round" stroke-linejoin="round"/>
<path d="M377.78 306.77C377.78 306.77 372.949 294.4 371.924 292.1C370.899 289.8 379.342 276.19 380.708 274.24C382.075 272.29 384.671 268.24 384.671 267.35C384.671 266.46 374.842 256.56 372.764 254.97C370.685 253.38 367.249 256.97 367.249 256.97C367.249 256.97 358.28 269.17 358.28 270.58C358.28 271.99 362.584 276.41 362.584 276.41C362.584 276.41 355.859 286.31 356.728 290.2C357.596 294.09 361.042 297.45 361.042 297.45L365.873 316.54L377.78 306.77Z" fill="white" stroke="#263238" stroke-linecap="round" stroke-linejoin="round"/>
<path d="M362.594 276.36C362.594 276.36 368.45 271.59 367.942 270.18C367.741 269.761 367.418 269.417 367.018 269.195C366.617 268.973 366.159 268.884 365.707 268.94" stroke="#263238" stroke-linecap="round" stroke-linejoin="round"/>
<path d="M366.742 258.51C367.259 258.51 382.436 268.76 382.094 270.51C381.792 271.802 381.33 273.049 380.718 274.22" stroke="#263238" stroke-linecap="round" stroke-linejoin="round"/>
<path d="M368.469 256.92C368.469 256.92 382.787 266.11 383.109 267.7C383.173 268.222 383.113 268.753 382.933 269.246C382.752 269.739 382.458 270.179 382.075 270.53" stroke="#263238" stroke-linecap="round" stroke-linejoin="round"/>
<path d="M370.021 255.33C370.021 255.33 385.032 265.76 384.661 267.33C384.25 268.617 383.607 269.814 382.768 270.86" stroke="#263238" stroke-linecap="round" stroke-linejoin="round"/>
<path d="M379.849 305.36L356.728 319C356.728 319 386.75 392.18 392.274 402.08C397.798 411.98 412.633 414.28 420.402 411.63C428.171 408.98 431.958 393.07 429.372 386.35C426.785 379.63 408.144 350.26 399.184 335.58C390.224 320.9 379.849 305.36 379.849 305.36Z" fill="#263238" stroke="#263238" stroke-linecap="round" stroke-linejoin="round"/>
<path d="M367.63 344C367.63 344 393.006 394 399.506 404" stroke="#616161" stroke-linecap="round" stroke-linejoin="round"/>
<path d="M381.938 311.29L417.728 367.29" stroke="#616161" stroke-linecap="round" stroke-linejoin="round"/>
<path d="M280.454 238.86V206.67C280.454 205.429 279.972 204.238 279.116 203.361C278.259 202.483 277.097 201.99 275.886 201.99H199.26C198.049 201.99 196.887 202.483 196.03 203.361C195.174 204.238 194.692 205.429 194.692 206.67V238.86C194.692 240.101 195.174 241.292 196.03 242.169C196.887 243.047 198.049 243.54 199.26 243.54H265.062L280.044 258.31L277.047 243.37C278.021 243.108 278.882 242.524 279.498 241.708C280.114 240.892 280.45 239.891 280.454 238.86Z" fill="white" stroke="#263238" stroke-linecap="round" stroke-linejoin="round"/>
<path d="M222.44 225.64C224.332 225.64 225.866 224.069 225.866 222.13C225.866 220.191 224.332 218.62 222.44 218.62C220.548 218.62 219.014 220.191 219.014 222.13C219.014 224.069 220.548 225.64 222.44 225.64Z" fill="#263238"/>
<path d="M237.568 225.64C239.46 225.64 240.994 224.069 240.994 222.13C240.994 220.191 239.46 218.62 237.568 218.62C235.676 218.62 234.143 220.191 234.143 222.13C234.143 224.069 235.676 225.64 237.568 225.64Z" fill="#263238"/>
<path d="M252.706 225.64C254.598 225.64 256.132 224.069 256.132 222.13C256.132 220.191 254.598 218.62 252.706 218.62C250.814 218.62 249.28 220.191 249.28 222.13C249.28 224.069 250.814 225.64 252.706 225.64Z" fill="#263238"/>
<path d="M207.136 238.12V230.92L199.748 229.24C199.346 227.778 198.779 226.368 198.06 225.04L202.11 218.5L197.152 213.41L190.769 217.57C189.479 216.826 188.106 216.245 186.68 215.84L185.03 208.27H178.003L176.363 215.84C174.933 216.243 173.557 216.824 172.264 217.57L165.92 213.41L160.952 218.5L164.944 225C164.216 226.324 163.649 227.735 163.256 229.2L155.867 230.88V238.08L163.256 239.77C163.648 241.245 164.215 242.666 164.944 244L160.884 250.54L165.852 255.63L172.235 251.47C173.529 252.215 174.905 252.799 176.334 253.21L177.974 260.77H185.001L186.65 253.21C188.075 252.797 189.448 252.213 190.74 251.47L197.123 255.63L202.091 250.54L198.06 244C198.777 242.674 199.344 241.268 199.748 239.81L207.136 238.12ZM181.536 243.82C179.741 243.82 177.986 243.275 176.493 242.253C175.001 241.231 173.837 239.778 173.15 238.079C172.463 236.38 172.283 234.51 172.634 232.706C172.984 230.902 173.848 229.245 175.118 227.944C176.387 226.643 178.004 225.758 179.765 225.399C181.526 225.04 183.351 225.224 185.01 225.928C186.668 226.632 188.086 227.824 189.083 229.353C190.08 230.883 190.613 232.681 190.613 234.52C190.613 235.741 190.378 236.951 189.922 238.079C189.466 239.207 188.797 240.233 187.954 241.096C187.111 241.96 186.111 242.645 185.01 243.112C183.908 243.579 182.728 243.82 181.536 243.82Z" fill="#263238" stroke="#263238" stroke-linecap="round" stroke-linejoin="round"/>
<path d="M145.199 427.24H306.63V420.57H145.199V427.24Z" fill="white" stroke="#263238" stroke-linecap="round" stroke-linejoin="round"/>
<path d="M120.409 427.24H261.109V420.57H120.409V427.24Z" fill="white" stroke="#263238" stroke-linecap="round" stroke-linejoin="round"/>
<path d="M117.686 408.7H252.296L237.783 303.41H103.173L117.686 408.7Z" fill="white" stroke="#263238" stroke-linecap="round" stroke-linejoin="round"/>
<path d="M112.113 408.7H246.723L232.21 303.41H97.6001L112.113 408.7Z" fill="#263238" stroke="#263238" stroke-linecap="round" stroke-linejoin="round"/>
<path d="M153.359 359.76L139.851 427.24H174.587L188.095 359.76H153.359ZM176.92 379.76C176.863 380.043 176.713 380.298 176.494 380.48C176.275 380.662 176.001 380.761 175.719 380.76L156.043 380.56C155.859 380.558 155.677 380.513 155.512 380.429C155.347 380.345 155.203 380.224 155.089 380.075C154.976 379.927 154.897 379.754 154.857 379.569C154.818 379.385 154.82 379.194 154.862 379.01L156.638 371.44C156.695 371.157 156.845 370.902 157.064 370.72C157.283 370.538 157.557 370.439 157.839 370.44L177.525 370.63C177.708 370.634 177.888 370.68 178.052 370.764C178.216 370.849 178.359 370.97 178.472 371.118C178.584 371.267 178.662 371.439 178.701 371.623C178.74 371.807 178.738 371.997 178.696 372.18L176.92 379.76Z" fill="white" stroke="#263238" stroke-linecap="round" stroke-linejoin="round"/>
<path d="M18.7882 432.08L473.116 432.08V427.24L18.7882 427.24V432.08Z" fill="#263238" stroke="#263238" stroke-linecap="round" stroke-linejoin="round"/>
<path d="M344.391 107.53L341.522 99H312.701L315.307 149H382.319V107.53H344.391Z" stroke="#263238" stroke-linecap="round" stroke-linejoin="round"/>
<path d="M382.318 149L388.038 103.19H342.654" stroke="#263238" stroke-linecap="round" stroke-linejoin="round"/>
<path d="M188.446 132.304C192.699 113.726 181.448 95.1344 163.317 90.7771C145.185 86.4198 127.039 97.9474 122.787 116.525C118.534 135.102 129.785 153.694 147.916 158.051C166.048 162.409 184.194 150.881 188.446 132.304Z" stroke="#263238" stroke-linecap="round" stroke-linejoin="round"/>
<path d="M182.055 130.908C185.545 115.954 176.543 100.933 161.948 97.3564C147.353 93.7801 132.692 103.003 129.201 117.957C125.711 132.911 134.713 147.933 149.308 151.509C163.903 155.086 178.564 145.862 182.055 130.908Z" stroke="#263238" stroke-linecap="round" stroke-linejoin="round"/>
<path d="M159.224 124.42C159.224 125.15 159.013 125.863 158.617 126.47C158.222 127.077 157.659 127.55 157.001 127.829C156.343 128.108 155.619 128.181 154.92 128.039C154.222 127.897 153.58 127.545 153.076 127.029C152.573 126.513 152.23 125.856 152.091 125.14C151.952 124.424 152.023 123.682 152.296 123.008C152.568 122.334 153.03 121.757 153.622 121.352C154.214 120.946 154.911 120.73 155.623 120.73C156.578 120.73 157.494 121.119 158.17 121.811C158.845 122.503 159.224 123.441 159.224 124.42Z" stroke="#263238" stroke-linecap="round" stroke-linejoin="round"/>
<path d="M155.516 98.67V105.56" stroke="#263238" stroke-linecap="round" stroke-linejoin="round"/>
<path d="M155.516 143.42V150.3" stroke="#263238" stroke-linecap="round" stroke-linejoin="round"/>
<path d="M137.704 106.23L142.447 111.1" stroke="#263238" stroke-linecap="round" stroke-linejoin="round"/>
<path d="M168.584 137.87L173.328 142.74" stroke="#263238" stroke-linecap="round" stroke-linejoin="round"/>
<path d="M130.325 124.49H137.04" stroke="#263238" stroke-linecap="round" stroke-linejoin="round"/>
<path d="M173.991 124.49H180.706" stroke="#263238" stroke-linecap="round" stroke-linejoin="round"/>
<path d="M137.704 142.74L142.447 137.87" stroke="#263238" stroke-linecap="round" stroke-linejoin="round"/>
<path d="M168.584 111.1L173.328 106.23" stroke="#263238" stroke-linecap="round" stroke-linejoin="round"/>
<path d="M152.022 124.42H142.076" stroke="#263238" stroke-linecap="round" stroke-linejoin="round"/>
<path d="M155.623 120.73V107.28" stroke="#263238" stroke-linecap="round" stroke-linejoin="round"/>
<path d="M287.998 99H210.572V149.67H287.998V99Z" stroke="#263238" stroke-linecap="round" stroke-linejoin="round"/>
<path d="M210.572 99L249.28 124.33L287.998 99" stroke="#263238" stroke-linecap="round" stroke-linejoin="round"/>
<path d="M210.572 149.67L239.852 122.33" stroke="#263238" stroke-linecap="round" stroke-linejoin="round"/>
<path d="M287.627 149.67L258.347 122.33" stroke="#263238" stroke-linecap="round" stroke-linejoin="round"/>
</svg>
