<svg width="488" height="500" viewBox="0 0 488 500" fill="none" xmlns="http://www.w3.org/2000/svg">
<path d="M430.133 263.76C432.085 237.19 426.053 209.45 417.972 184.76C406.016 148 382.67 110.33 343.435 101.63C320.811 96.63 297.787 101.99 278.384 114.55C259.733 126.63 245.2 142.24 222.255 145.26C199.055 148.32 175.25 147.09 151.934 147.09C91.9782 147.09 43.3246 211.62 55.4855 278.84C67.6465 346.06 124.996 392.67 173.65 392.67C217.375 392.67 253.35 365.8 294.879 358.58C315.472 355 336.154 359.24 356.533 353.88C380.22 347.64 402.493 332.77 415.62 311.24C424.56 296.56 428.913 280.39 430.133 263.76Z" fill="#9E171A"/>
<path opacity="0.7" d="M430.133 263.76C432.085 237.19 426.053 209.45 417.972 184.76C406.016 148 382.67 110.33 343.435 101.63C320.811 96.63 297.787 101.99 278.384 114.55C259.733 126.63 245.2 142.24 222.255 145.26C199.055 148.32 175.25 147.09 151.934 147.09C91.9782 147.09 43.3246 211.62 55.4855 278.84C67.6465 346.06 124.996 392.67 173.65 392.67C217.375 392.67 253.35 365.8 294.879 358.58C315.472 355 336.154 359.24 356.533 353.88C380.22 347.64 402.493 332.77 415.62 311.24C424.56 296.56 428.913 280.39 430.133 263.76Z" fill="white"/>
<path d="M423.116 254.43C423.116 254.43 423.116 249.43 416.284 242.5C409.452 235.57 405.118 231.55 405.118 231.55C405.118 231.55 401.722 242.99 408.046 249.96C412.689 254.855 417.723 259.344 423.096 263.38L423.116 254.43Z" fill="#9E171A"/>
<path d="M413.258 285.49C413.258 285.49 413.258 280.49 406.426 273.56C399.594 266.63 395.28 262.61 395.28 262.61C395.28 262.61 391.874 274.05 398.208 281.02C402.851 285.915 407.885 290.404 413.258 294.44V285.49Z" fill="#9E171A"/>
<path d="M422.686 262.9C422.686 262.9 423.204 257.96 430.68 251.77C438.156 245.58 442.909 242.1 442.909 242.1C442.909 242.1 445.105 253.84 438.117 260.1C432.996 264.467 427.527 268.387 421.769 271.82L422.686 262.9Z" fill="#9E171A"/>
<path d="M410.779 299.58C410.779 299.58 411.755 294.72 419.866 289.37C427.976 284.02 433.013 281.07 433.013 281.07C433.013 281.07 433.989 292.99 426.405 298.44C420.864 302.232 415.023 305.544 408.944 308.34L410.779 299.58Z" fill="#9E171A"/>
<path d="M413.014 339.58C413.014 339.58 413.014 334.58 419.846 327.64C426.678 320.7 431.002 316.7 431.002 316.7C431.002 316.7 434.408 328.14 428.074 335.1C423.433 340 418.399 344.493 413.024 348.53L413.014 339.58Z" fill="#9E171A"/>
<path d="M412.907 349.34C412.907 349.34 413.59 344.42 407.832 336.54C402.073 328.66 398.296 324.08 398.296 324.08C398.296 324.08 393.348 334.91 398.628 342.72C402.542 348.243 406.9 353.422 411.657 358.2L412.907 349.34Z" fill="#9E171A"/>
<path d="M406.202 378.27C406.202 378.27 406.202 373.27 413.034 366.34C419.866 359.41 424.199 355.39 424.199 355.39C424.199 355.39 427.596 366.83 421.271 373.8C416.627 378.697 411.593 383.189 406.221 387.23L406.202 378.27Z" fill="#9E171A"/>
<path d="M410.74 404.5C410.74 404.5 409.511 399.69 414.361 391.19C419.212 382.69 422.462 377.71 422.462 377.71C422.462 377.71 428.572 387.89 424.19 396.27C420.911 402.211 417.153 407.861 412.956 413.16L410.74 404.5Z" fill="#9E171A"/>
<path d="M423.731 253.16C423.389 258.338 422.77 263.492 421.876 268.6C419.183 282.82 412.468 292 409.784 304.84C407.1 317.68 414.81 334.23 412.712 350.73C410.613 367.23 404.386 376.4 406.172 387.41C407.959 398.42 417.367 428.24 417.367 428.24" stroke="#263238" stroke-linecap="round" stroke-linejoin="round"/>
<path d="M422.628 266.21L429.948 260.45" stroke="#263238" stroke-linecap="round" stroke-linejoin="round"/>
<path d="M422.969 259.58L419.895 253.99" stroke="#263238" stroke-linecap="round" stroke-linejoin="round"/>
<path d="M410.193 304.25C410.193 304.25 416.323 299.54 422.628 294.83" stroke="#263238" stroke-linecap="round" stroke-linejoin="round"/>
<path d="M413.258 294.44C413.258 294.44 408.144 284.18 402.356 277.38" stroke="#263238" stroke-linecap="round" stroke-linejoin="round"/>
<path d="M413.258 346.66C416.755 340.039 421.174 333.976 426.376 328.66" stroke="#263238" stroke-linecap="round" stroke-linejoin="round"/>
<path d="M412.068 353.64C410.208 349.151 407.984 344.829 405.421 340.72C401.849 335.31 401.332 334.61 401.332 334.61" stroke="#263238" stroke-linecap="round" stroke-linejoin="round"/>
<path d="M406.202 387.41C407.758 383.469 409.604 379.654 411.726 376C413.849 372.604 416.241 369.393 418.88 366.4" stroke="#263238" stroke-linecap="round" stroke-linejoin="round"/>
<path d="M412.956 413.16C412.6 409.391 413.233 405.594 414.791 402.16C417.348 397.1 420.237 390.47 421.427 387.85" stroke="#263238" stroke-linecap="round" stroke-linejoin="round"/>
<path d="M367.659 320.88C367.659 320.88 367.132 317.76 370.656 312.63C374.179 307.5 376.512 304.53 376.512 304.53C376.512 304.53 379.85 311.33 376.629 316.39C374.237 319.979 371.556 323.358 368.616 326.49L367.659 320.88Z" fill="#9E171A"/>
<path d="M377.136 339.26C377.136 339.26 376.609 336.14 380.133 331.01C383.656 325.88 385.989 322.91 385.989 322.91C385.989 322.91 389.327 329.71 386.106 334.78C383.712 338.365 381.032 341.74 378.093 344.87L377.136 339.26Z" fill="#9E171A"/>
<path d="M368.821 326.14C368.821 326.14 367.982 323.14 362.633 320.05C357.285 316.96 353.947 315.34 353.947 315.34C353.947 315.34 353.81 322.95 358.827 326.09C362.5 328.256 366.342 330.106 370.314 331.62L368.821 326.14Z" fill="#9E171A"/>
<path d="M380.182 347.82C380.182 347.82 379.03 344.88 373.408 342.42C367.787 339.96 364.273 338.68 364.273 338.68C364.273 338.68 364.917 346.26 370.266 348.84C374.141 350.599 378.154 352.024 382.261 353.1L380.182 347.82Z" fill="#9E171A"/>
<path d="M383.012 373.15C383.012 373.15 382.495 370.03 377.488 366.42C372.481 362.81 369.328 360.8 369.328 360.8C369.328 360.8 368.411 368.35 373.105 372.01C376.535 374.569 380.169 376.827 383.968 378.76L383.012 373.15Z" fill="#9E171A"/>
<path d="M384.125 379.26C384.125 379.26 383.149 376.26 385.95 370.66C388.751 365.06 390.605 361.79 390.605 361.79C390.605 361.79 394.851 368.03 392.372 373.52C390.504 377.418 388.32 381.147 385.842 384.67L384.125 379.26Z" fill="#9E171A"/>
<path d="M392.655 404.41C392.655 404.41 393.006 401.27 397.798 397.41C402.591 393.55 405.606 391.32 405.606 391.32C405.606 391.32 406.944 398.81 402.464 402.74C399.182 405.491 395.683 407.956 392.001 410.11L392.655 404.41Z" fill="#9E171A"/>
<path d="M391.376 396.65C391.376 396.65 390.849 393.53 385.852 389.92C380.855 386.31 377.712 384.3 377.712 384.3C377.712 384.3 376.795 391.85 381.489 395.52C384.921 398.075 388.555 400.332 392.352 402.27L391.376 396.65Z" fill="#9E171A"/>
<path d="M391.376 413.61C391.376 413.61 391.63 410.45 387.687 405.66C383.744 400.87 381.187 398.11 381.187 398.11C381.187 398.11 378.425 405.17 382.065 409.94C384.733 413.299 387.672 416.423 390.849 419.28L391.376 413.61Z" fill="#9E171A"/>
<path d="M367.142 320.14C367.906 323.35 368.841 326.515 369.943 329.62C373.135 338.24 378.317 343.25 381.362 351C384.408 358.75 381.362 370 384.368 380.11C387.375 390.22 392.352 395.28 392.352 402.38C392.352 409.48 389.658 429.23 389.658 429.23" stroke="#263238" stroke-linecap="round" stroke-linejoin="round"/>
<path d="M369.221 328.2L364.019 325.41" stroke="#263238" stroke-linecap="round" stroke-linejoin="round"/>
<path d="M368.304 324.08L369.631 320.24" stroke="#263238" stroke-linecap="round" stroke-linejoin="round"/>
<path d="M381.04 350.68C381.04 350.68 376.697 348.41 372.256 346.15" stroke="#263238" stroke-linecap="round" stroke-linejoin="round"/>
<path d="M378.083 344.87C379.363 340.75 381.047 336.773 383.109 333" stroke="#263238" stroke-linecap="round" stroke-linejoin="round"/>
<path d="M383.617 377.61C380.721 373.855 377.309 370.551 373.486 367.8" stroke="#263238" stroke-linecap="round" stroke-linejoin="round"/>
<path d="M385.101 381.85C385.795 378.833 386.732 375.879 387.902 373.02C389.571 369.23 389.854 368.73 389.854 368.73" stroke="#263238" stroke-linecap="round" stroke-linejoin="round"/>
<path d="M392.118 407.77C393.811 405.621 395.685 403.63 397.72 401.82C399.015 400.843 400.229 399.76 401.351 398.58" stroke="#263238" stroke-linecap="round" stroke-linejoin="round"/>
<path d="M392.352 402.38C390.958 400.076 389.395 397.883 387.677 395.82C385.985 393.928 384.144 392.182 382.172 390.6" stroke="#263238" stroke-linecap="round" stroke-linejoin="round"/>
<path d="M390.849 419.28C390.675 416.875 389.876 414.562 388.536 412.58C386.399 409.69 383.881 405.85 382.856 404.34" stroke="#263238" stroke-linecap="round" stroke-linejoin="round"/>
<path d="M90.4458 277.32L86.1709 264.81L90.4458 270.12L87.0883 251.35L92.2807 264.81L94.1155 238.52L97.1704 263.55L100.528 258.55V264.81L104.5 256.36L102.363 271.06L106.023 268.56L100.225 276.69L90.4458 277.32Z" fill="#9E171A"/>
<path d="M103.885 274.19H88.0059L90.8655 307.04H101.026L103.885 274.19Z" fill="#263238" stroke="#263238" stroke-linecap="round" stroke-linejoin="round"/>
<path d="M133.673 306.67H79.5732V424.07H133.673V306.67Z" fill="white" stroke="#263238" stroke-linecap="round" stroke-linejoin="round"/>
<path d="M136.63 306.67H106.618V424.07H136.63V306.67Z" fill="white" stroke="#263238" stroke-linecap="round" stroke-linejoin="round"/>
<path d="M133.253 306.67H106.618V424.07H133.253V306.67Z" fill="#263238" stroke="#263238" stroke-linecap="round" stroke-linejoin="round"/>
<path d="M130.257 396.77H106.618V420.81H130.257V396.77Z" fill="#9E171A" stroke="#263238" stroke-linecap="round" stroke-linejoin="round"/>
<path d="M130.257 398.07H106.618V401.15H130.257V398.07Z" fill="white" stroke="#263238" stroke-linecap="round" stroke-linejoin="round"/>
<path d="M130.257 415.77H106.618V418.85H130.257V415.77Z" fill="white" stroke="#263238" stroke-linecap="round" stroke-linejoin="round"/>
<path d="M111.098 397.27V427.67" stroke="#263238" stroke-linecap="round" stroke-linejoin="round"/>
<path d="M119.345 397.27V427.67" stroke="#263238" stroke-linecap="round" stroke-linejoin="round"/>
<path d="M126.587 397.27V427.67" stroke="#263238" stroke-linecap="round" stroke-linejoin="round"/>
<path d="M130.257 311.03H106.618V346.38H130.257V311.03Z" fill="#9E171A" stroke="#263238" stroke-linecap="round" stroke-linejoin="round"/>
<path d="M130.257 312.51H106.618V316.01H130.257V312.51Z" fill="white" stroke="#263238" stroke-linecap="round" stroke-linejoin="round"/>
<path d="M130.257 335.17H106.618V338.67H130.257V335.17Z" fill="white" stroke="#263238" stroke-linecap="round" stroke-linejoin="round"/>
<path d="M111.098 311.59V346.14" stroke="#263238" stroke-linecap="round" stroke-linejoin="round"/>
<path d="M119.345 311.59V346.14" stroke="#263238" stroke-linecap="round" stroke-linejoin="round"/>
<path d="M126.587 311.59V346.14" stroke="#263238" stroke-linecap="round" stroke-linejoin="round"/>
<path d="M130.257 353.63H106.618V388.98H130.257V353.63Z" fill="#9E171A" stroke="#263238" stroke-linecap="round" stroke-linejoin="round"/>
<path d="M130.257 355.11H106.618V358.61H130.257V355.11Z" fill="white" stroke="#263238" stroke-linecap="round" stroke-linejoin="round"/>
<path d="M130.257 377.77H106.618V381.27H130.257V377.77Z" fill="white" stroke="#263238" stroke-linecap="round" stroke-linejoin="round"/>
<path d="M111.098 354.2V388.74" stroke="#263238" stroke-linecap="round" stroke-linejoin="round"/>
<path d="M119.345 354.2V388.74" stroke="#263238" stroke-linecap="round" stroke-linejoin="round"/>
<path d="M126.587 354.2V388.74" stroke="#263238" stroke-linecap="round" stroke-linejoin="round"/>
<path d="M133.663 345.89H106.618V349.91H133.663V345.89Z" fill="white" stroke="#263238" stroke-linecap="round" stroke-linejoin="round"/>
<path d="M133.663 388.76H106.618V392.78H133.663V388.76Z" fill="white" stroke="#263238" stroke-linecap="round" stroke-linejoin="round"/>
<path d="M133.663 306.67V424.06" stroke="#263238" stroke-linecap="round" stroke-linejoin="round"/>
<path d="M102.802 306.67V424.06H106.618V311.03H133.195V306.62L102.802 306.67Z" fill="white" stroke="#263238" stroke-linecap="round" stroke-linejoin="round"/>
<path d="M106.618 311.03V306.67" stroke="#263238" stroke-linecap="round" stroke-linejoin="round"/>
<path d="M133.458 252.74C130.618 247.13 129.427 243.11 129.427 242.18C129.427 240.34 133.331 239.24 133.331 239.24C139.421 235.94 168.067 240.71 180.96 242.91C188.177 244.199 195.479 244.935 202.803 245.11C202.803 245.11 204.589 243.65 206.707 241.81C208.825 239.97 218.878 227.87 222.821 226.81C226.764 225.75 230.336 228.28 230.336 228.28C230.336 228.28 236.787 232.28 235.704 233.05C234.621 233.82 218.878 247.72 214.935 250.29C210.992 252.86 202.764 251.76 195.6 253.23C189.432 254.49 164.446 256.05 158.717 256.53C154.414 257.576 149.899 257.19 145.824 255.43" fill="white"/>
<mask id="mask0_191_677" style="mask-type:luminance" maskUnits="userSpaceOnUse" x="129" y="226" width="107" height="32">
<path d="M133.458 252.74C130.618 247.13 129.427 243.11 129.427 242.18C129.427 240.34 133.331 239.24 133.331 239.24C139.421 235.94 168.067 240.71 180.96 242.91C188.177 244.199 195.479 244.935 202.803 245.11C202.803 245.11 204.589 243.65 206.707 241.81C208.825 239.97 218.878 227.87 222.821 226.81C226.764 225.75 230.336 228.28 230.336 228.28C230.336 228.28 236.787 232.28 235.704 233.05C234.621 233.82 218.878 247.72 214.935 250.29C210.992 252.86 202.764 251.76 195.6 253.23C189.432 254.49 164.446 256.05 158.717 256.53C154.414 257.576 149.899 257.19 145.824 255.43" fill="white"/>
</mask>
<g mask="url(#mask0_191_677)">
<path d="M230.404 228.24C230.404 228.24 226.822 225.67 222.889 226.77C218.956 227.87 208.922 239.98 206.775 241.77C204.628 243.56 202.871 245.07 202.871 245.07C195.547 244.895 188.246 244.159 181.028 242.87C168.135 240.67 139.49 235.87 133.4 239.2C133.4 239.2 129.496 240.3 129.496 242.14C129.631 243.169 129.89 244.176 130.267 245.14L130.803 245.34C130.803 245.34 137.958 244.57 153.398 244.95C168.838 245.33 204.55 247.5 206.844 248.35C207.82 248.73 214.739 247.13 222.411 244.35C228.267 239.46 235.148 233.35 235.841 232.92C236.856 232.27 230.404 228.24 230.404 228.24Z" fill="#9E171A"/>
<path opacity="0.5" d="M230.404 228.24C230.404 228.24 226.822 225.67 222.889 226.77C218.956 227.87 208.922 239.98 206.775 241.77C204.628 243.56 202.871 245.07 202.871 245.07C195.547 244.895 188.246 244.159 181.028 242.87C168.135 240.67 139.49 235.87 133.4 239.2C133.4 239.2 129.496 240.3 129.496 242.14C129.631 243.169 129.89 244.176 130.267 245.14L130.803 245.34C130.803 245.34 137.958 244.57 153.398 244.95C168.838 245.33 204.55 247.5 206.844 248.35C207.82 248.73 214.739 247.13 222.411 244.35C228.267 239.46 235.148 233.35 235.841 232.92C236.856 232.27 230.404 228.24 230.404 228.24Z" fill="white"/>
</g>
<path d="M133.458 252.74C130.618 247.13 129.427 243.11 129.427 242.18C129.427 240.34 133.331 239.24 133.331 239.24C139.421 235.94 168.067 240.71 180.96 242.91C188.177 244.199 195.479 244.935 202.803 245.11C202.803 245.11 204.589 243.65 206.707 241.81C208.825 239.97 218.878 227.87 222.821 226.81C226.764 225.75 230.336 228.28 230.336 228.28C230.336 228.28 236.787 232.28 235.704 233.05C234.621 233.82 218.878 247.72 214.935 250.29C210.992 252.86 202.764 251.76 195.6 253.23C189.432 254.49 164.446 256.05 158.717 256.53C154.414 257.576 149.899 257.19 145.824 255.43" stroke="#263238" stroke-linecap="round" stroke-linejoin="round"/>
<path d="M274.89 285.36C275.538 284.1 276.509 283.046 277.7 282.311C278.89 281.576 280.254 281.188 281.644 281.19H346.743C346.743 281.19 351.448 281.19 350.042 290.35C348.637 299.51 329.331 355.44 324.666 372.35C320.001 389.26 319.015 424.9 319.015 424.9H240.935C240.935 424.9 247.123 339.67 274.89 285.36Z" fill="white"/>
<mask id="mask1_191_677" style="mask-type:luminance" maskUnits="userSpaceOnUse" x="240" y="281" width="111" height="144">
<path d="M274.89 285.36C275.538 284.1 276.509 283.046 277.7 282.311C278.89 281.576 280.254 281.188 281.644 281.19H346.743C346.743 281.19 351.448 281.19 350.042 290.35C348.637 299.51 329.331 355.44 324.666 372.35C320.001 389.26 319.015 424.9 319.015 424.9H240.935C240.935 424.9 247.123 339.67 274.89 285.36Z" fill="white"/>
</mask>
<g mask="url(#mask1_191_677)">
<path opacity="0.16" d="M304.209 281.19H281.644C280.254 281.188 278.89 281.576 277.7 282.311C276.509 283.046 275.538 284.1 274.89 285.36C247.123 339.67 240.867 424.87 240.867 424.87H275.886L284.523 391.26L320.538 398.87C320.791 396.05 321.084 393.18 321.426 390.35L320.635 381.35C320.635 381.35 313.257 373.4 310.934 371.41C308.611 369.42 310.153 365.83 309.763 350.32C309.372 334.81 295.786 323.66 290.731 314.11C285.675 304.56 293.454 298.59 300.442 289.04C302.931 285.59 303.946 283.05 304.209 281.19Z" fill="black"/>
</g>
<path d="M274.89 285.36C275.538 284.1 276.509 283.046 277.7 282.311C278.89 281.576 280.254 281.188 281.644 281.19H346.743C346.743 281.19 351.448 281.19 350.042 290.35C348.637 299.51 329.331 355.44 324.666 372.35C320.001 389.26 319.015 424.9 319.015 424.9H240.935C240.935 424.9 247.123 339.67 274.89 285.36Z" stroke="#263238" stroke-linecap="round" stroke-linejoin="round"/>
<path d="M335.451 297.1C328.873 312.83 314.955 375.1 312.69 424.87H318.976C318.976 424.87 319.952 389.19 324.627 372.32C329.302 355.45 348.627 299.51 350.003 290.32C351.379 281.13 346.704 281.16 346.704 281.16C346.704 281.16 340.731 284.49 335.451 297.1Z" fill="#263238" stroke="#263238" stroke-linecap="round" stroke-linejoin="round"/>
<path d="M221.093 265.66C221.093 265.66 210.708 259.42 206.775 248.42C202.842 237.42 237.568 219.8 252.647 218.7C267.726 217.6 271.982 221.63 280.951 237.41C289.921 253.19 295.991 274.83 291.336 285.47C286.68 296.11 278.804 298.68 284.504 307.47C290.204 316.26 306.347 341.22 305.273 352.96C304.199 364.7 293.102 374.96 276.969 376.08C260.836 377.2 239.364 367.27 221.464 351.08C203.564 334.89 208.21 311.08 214.632 303.38C221.054 295.68 230.746 292.74 231.458 285.04C232.171 277.34 221.093 265.66 221.093 265.66Z" fill="#263238" stroke="#263238" stroke-linecap="round" stroke-linejoin="round"/>
<path d="M265.354 248.25C270.869 258.77 277.769 272.86 279.926 281.37C283.694 296.27 264.31 305.65 269.688 312.82" stroke="white" stroke-linecap="round" stroke-linejoin="round"/>
<path d="M257.839 234.47C257.839 234.47 259.987 238.22 262.954 243.74" stroke="white" stroke-linecap="round" stroke-linejoin="round"/>
<path d="M286.768 260.94C287.404 262.912 287.817 264.952 287.998 267.02" stroke="white" stroke-linecap="round" stroke-linejoin="round"/>
<path d="M261.568 229C261.568 229 278.531 241.84 285.304 257.21" stroke="white" stroke-linecap="round" stroke-linejoin="round"/>
<path d="M238.027 238.63C225.915 242.11 208.493 247.76 209.908 251.02" stroke="white" stroke-linecap="round" stroke-linejoin="round"/>
<path d="M249.221 235.57C249.221 235.57 246.635 236.23 242.78 237.29" stroke="white" stroke-linecap="round" stroke-linejoin="round"/>
<path d="M234.24 229.09C241.178 226.85 248.444 225.868 255.712 226.19" stroke="white" stroke-linecap="round" stroke-linejoin="round"/>
<path d="M229.301 231.16C230.398 230.574 231.533 230.067 232.698 229.64" stroke="white" stroke-linecap="round" stroke-linejoin="round"/>
<path d="M133.458 252.74C131.814 249.656 130.505 246.396 129.554 243.02C130.5 246.398 131.81 249.658 133.458 252.74ZM129.447 242.45C129.447 242.51 129.447 242.58 129.447 242.67C129.466 242.58 129.456 242.51 129.447 242.45ZM133.458 252.73C137.108 259.814 141.65 266.377 146.966 272.25C159.859 286.56 197.103 323.99 200.646 326.56C204.189 329.13 203.154 336.46 200.646 343.8C198.138 351.14 188.827 361.8 189.188 373.52C189.549 385.24 193.092 403.24 192.77 406.91C192.447 410.58 183.488 423.06 183.488 423.06H275.876C275.876 423.06 264.359 408.06 264.359 402.93C264.359 397.8 280.17 332.07 280.883 327.3C281.595 322.53 278.736 319.23 273.007 318.86C267.277 318.49 245.435 313.72 244.361 310.05C243.287 306.38 250.09 292.44 250.09 292.44L228.618 293.54C228.618 293.54 227.544 303.08 226.11 304.92C224.675 306.76 222.528 303.08 217.511 300.52C212.495 297.96 202.871 295.75 199.25 292.81C195.629 289.87 161.294 256.81 161.294 256.81" fill="white"/>
<mask id="mask2_191_677" style="mask-type:luminance" maskUnits="userSpaceOnUse" x="129" y="242" width="152" height="182">
<path d="M133.458 252.74C131.814 249.656 130.505 246.396 129.554 243.02C130.5 246.398 131.81 249.658 133.458 252.74ZM129.447 242.45C129.447 242.51 129.447 242.58 129.447 242.67C129.466 242.58 129.456 242.51 129.447 242.45ZM133.458 252.73C137.108 259.814 141.65 266.377 146.966 272.25C159.859 286.56 197.103 323.99 200.646 326.56C204.189 329.13 203.154 336.46 200.646 343.8C198.138 351.14 188.827 361.8 189.188 373.52C189.549 385.24 193.092 403.24 192.77 406.91C192.447 410.58 183.488 423.06 183.488 423.06H275.876C275.876 423.06 264.359 408.06 264.359 402.93C264.359 397.8 280.17 332.07 280.883 327.3C281.595 322.53 278.736 319.23 273.007 318.86C267.277 318.49 245.435 313.72 244.361 310.05C243.287 306.38 250.09 292.44 250.09 292.44L228.618 293.54C228.618 293.54 227.544 303.08 226.11 304.92C224.675 306.76 222.528 303.08 217.511 300.52C212.495 297.96 202.871 295.75 199.25 292.81C195.629 289.87 161.294 256.81 161.294 256.81" fill="white"/>
</mask>
<g mask="url(#mask2_191_677)">
<path d="M204.735 295.64C206.521 298.84 208.308 301.73 208.308 301.73C208.308 301.73 214.329 305.2 215.832 305.2C217.336 305.2 226.373 310.2 226.373 310.2C226.373 310.2 233.908 308.27 231.253 301.71C230.416 300.031 229.358 298.476 228.111 297.09C227.662 300 226.939 303.81 226.09 304.9C224.656 306.73 222.508 303.06 217.492 300.5C214.242 298.84 208.981 297.32 204.735 295.64Z" fill="#9E171A"/>
<path d="M186.347 280.79C175.289 270.3 161.294 256.85 161.294 256.85L153.154 255.65L152.178 256.21C152.178 256.21 175.153 277.04 180.043 279.36C182.021 280.292 184.17 280.779 186.347 280.79Z" fill="#9E171A"/>
<path d="M197.933 291.65L197.054 290.85C197.503 291.61 197.757 292.09 197.757 292.09L197.933 291.65Z" fill="#9E171A"/>
<g opacity="0.5">
<path d="M204.735 295.64C206.521 298.84 208.308 301.73 208.308 301.73C208.308 301.73 214.329 305.2 215.832 305.2C217.336 305.2 226.373 310.2 226.373 310.2C226.373 310.2 233.908 308.27 231.253 301.71C230.416 300.031 229.358 298.476 228.111 297.09C227.662 300 226.939 303.81 226.09 304.9C224.656 306.73 222.508 303.06 217.492 300.5C214.242 298.84 208.981 297.32 204.735 295.64Z" fill="white"/>
<path d="M186.347 280.79C175.289 270.3 161.294 256.85 161.294 256.85L153.154 255.65L152.178 256.21C152.178 256.21 175.153 277.04 180.043 279.36C182.021 280.292 184.17 280.779 186.347 280.79Z" fill="white"/>
<path d="M197.933 291.65L197.054 290.85C197.503 291.61 197.757 292.09 197.757 292.09L197.933 291.65Z" fill="white"/>
</g>
</g>
<path d="M129.427 242.18C129.423 242.25 129.423 242.32 129.427 242.39M129.554 243.02C130.505 246.396 131.814 249.656 133.458 252.74C131.81 249.658 130.5 246.398 129.554 243.02ZM129.554 243.02C129.527 242.925 129.508 242.828 129.495 242.73M133.458 252.73C137.108 259.814 141.65 266.377 146.966 272.25C159.859 286.56 197.103 323.99 200.646 326.56C204.189 329.13 203.154 336.46 200.646 343.8C198.138 351.14 188.827 361.8 189.188 373.52C189.549 385.24 193.092 403.24 192.77 406.91C192.447 410.58 183.488 423.06 183.488 423.06H275.876C275.876 423.06 264.359 408.06 264.359 402.93C264.359 397.8 280.17 332.07 280.883 327.3C281.595 322.53 278.736 319.23 273.007 318.86C267.277 318.49 245.435 313.72 244.361 310.05C243.287 306.38 250.09 292.44 250.09 292.44L228.618 293.54C228.618 293.54 227.544 303.08 226.11 304.92C224.675 306.76 222.528 303.08 217.511 300.52C212.495 297.96 202.871 295.75 199.25 292.81C195.629 289.87 161.294 256.81 161.294 256.81M129.447 242.45C129.447 242.51 129.447 242.58 129.447 242.67C129.466 242.58 129.456 242.51 129.447 242.45Z" stroke="#263238" stroke-linecap="round" stroke-linejoin="round"/>
<path d="M161.293 256.85C161.293 256.85 149.855 257.07 143.472 251.68" stroke="#263238" stroke-linecap="round" stroke-linejoin="round"/>
<path d="M244.371 310.05C243.297 306.39 250.1 292.44 250.1 292.44L228.628 293.54C228.628 293.54 227.554 303.08 226.12 304.92C224.685 306.76 222.538 303.08 217.521 300.52C217.14 300.32 216.721 300.13 216.291 299.94L214.993 320.85C214.993 320.85 216.877 341.1 239.461 337.25C248.607 335.69 258.367 327.33 266.789 317.93C258.123 316.3 245.191 312.86 244.371 310.05Z" fill="white"/>
<mask id="mask3_191_677" style="mask-type:luminance" maskUnits="userSpaceOnUse" x="214" y="292" width="53" height="46">
<path d="M244.371 310.05C243.297 306.39 250.1 292.44 250.1 292.44L228.628 293.54C228.628 293.54 227.554 303.08 226.12 304.92C224.685 306.76 222.538 303.08 217.521 300.52C217.14 300.32 216.721 300.13 216.291 299.94L214.993 320.85C214.993 320.85 216.877 341.1 239.461 337.25C248.607 335.69 258.367 327.33 266.789 317.93C258.123 316.3 245.191 312.86 244.371 310.05Z" fill="white"/>
</mask>
<g mask="url(#mask3_191_677)">
<path d="M243.766 295.21C243.766 295.21 242.468 302.67 241.423 310.92C240.379 319.17 239.608 325.31 239.608 325.31L244.371 310.05L249.739 293.88C249.739 293.88 244.546 293.88 243.766 295.21Z" fill="#9E171A"/>
<path opacity="0.5" d="M243.766 295.21C243.766 295.21 242.468 302.67 241.423 310.92C240.379 319.17 239.608 325.31 239.608 325.31L244.371 310.05L249.739 293.88C249.739 293.88 244.546 293.88 243.766 295.21Z" fill="white"/>
</g>
<path d="M244.371 310.05C243.297 306.39 250.1 292.44 250.1 292.44L228.628 293.54C228.628 293.54 227.554 303.08 226.12 304.92C224.685 306.76 222.538 303.08 217.521 300.52C217.14 300.32 216.721 300.13 216.291 299.94L214.993 320.85C214.993 320.85 216.877 341.1 239.461 337.25C248.607 335.69 258.367 327.33 266.789 317.93C258.123 316.3 245.191 312.86 244.371 310.05Z" stroke="#263238" stroke-linecap="round" stroke-linejoin="round"/>
<path d="M226.11 304.92C224.675 306.75 222.528 303.08 217.511 300.52C214.349 298.89 209.313 297.41 205.145 295.81C203.964 292.94 202.403 289.2 201.397 286.94C199.611 282.94 196.742 285.47 196.742 285.47C195.245 283.726 194.035 281.743 193.16 279.6C191.374 275.6 188.504 275.93 184.571 275.2C180.638 274.47 172.391 266.76 172.391 266.76C172.391 266.76 168.535 263.76 166.944 262.27C165.09 266.01 160.649 272.59 151.045 276.7C166.359 293.09 197.425 324.23 200.685 326.57C204.267 329.13 203.193 336.47 200.685 343.81C198.176 351.15 188.865 361.81 189.227 373.53C189.588 385.25 193.131 403.25 192.808 406.92C192.486 410.19 185.342 420.44 183.79 422.64L187.431 423.06H206.385C206.277 413.22 206.287 373.06 212.855 357.06C220.38 338.67 226.11 304.92 226.11 304.92Z" fill="#9E171A"/>
<mask id="mask4_191_677" style="mask-type:luminance" maskUnits="userSpaceOnUse" x="151" y="262" width="76" height="162">
<path d="M226.11 304.92C224.675 306.75 222.528 303.08 217.511 300.52C214.349 298.89 209.313 297.41 205.145 295.81C203.964 292.94 202.403 289.2 201.397 286.94C199.611 282.94 196.742 285.47 196.742 285.47C195.245 283.726 194.035 281.743 193.16 279.6C191.374 275.6 188.504 275.93 184.571 275.2C180.638 274.47 172.391 266.76 172.391 266.76C172.391 266.76 168.535 263.76 166.944 262.27C165.09 266.01 160.649 272.59 151.045 276.7C166.359 293.09 197.425 324.23 200.685 326.57C204.267 329.13 203.193 336.47 200.685 343.81C198.176 351.15 188.865 361.81 189.227 373.53C189.588 385.25 193.131 403.25 192.808 406.92C192.486 410.19 185.342 420.44 183.79 422.64L187.431 423.06H206.385C206.277 413.22 206.287 373.06 212.855 357.06C220.38 338.67 226.11 304.92 226.11 304.92Z" fill="white"/>
</mask>
<g mask="url(#mask4_191_677)">
<path opacity="0.16" d="M217.511 300.52C214.349 298.89 209.313 297.41 205.145 295.81C203.964 292.94 202.403 289.2 201.397 286.94C199.611 282.94 196.742 285.47 196.742 285.47C195.245 283.726 194.035 281.743 193.16 279.6C191.374 275.6 188.505 275.93 184.571 275.2C180.638 274.47 172.391 266.76 172.391 266.76C172.391 266.76 168.536 263.76 166.945 262.27C166.151 263.858 165.206 265.362 164.124 266.76C170.527 272.31 177.593 278.19 180.062 279.36C184.942 281.67 186.084 279.74 189.822 282.06C193.56 284.38 197.728 292.06 197.728 292.06C197.728 292.06 199.992 285.88 201.876 290.13C203.759 294.38 208.278 301.7 208.278 301.7C208.278 301.7 214.3 305.17 215.803 305.17C216.984 305.17 222.772 308.25 225.231 309.58C225.778 306.65 226.081 304.89 226.081 304.89C224.675 306.75 222.528 303.08 217.511 300.52Z" fill="black"/>
</g>
<path d="M226.11 304.92C224.675 306.75 222.528 303.08 217.511 300.52C214.349 298.89 209.313 297.41 205.145 295.81C203.964 292.94 202.403 289.2 201.397 286.94C199.611 282.94 196.742 285.47 196.742 285.47C195.245 283.726 194.035 281.743 193.16 279.6C191.374 275.6 188.504 275.93 184.571 275.2C180.638 274.47 172.391 266.76 172.391 266.76C172.391 266.76 168.535 263.76 166.944 262.27C165.09 266.01 160.649 272.59 151.045 276.7C166.359 293.09 197.425 324.23 200.685 326.57C204.267 329.13 203.193 336.47 200.685 343.81C198.176 351.15 188.865 361.81 189.227 373.53C189.588 385.25 193.131 403.25 192.808 406.92C192.486 410.19 185.342 420.44 183.79 422.64L187.431 423.06H206.385C206.277 413.22 206.287 373.06 212.855 357.06C220.38 338.67 226.11 304.92 226.11 304.92Z" stroke="#263238" stroke-linecap="round" stroke-linejoin="round"/>
<path d="M226.363 303.64C226.363 303.64 221.913 302.24 219.17 304.7C216.428 307.16 212.338 319.78 209.927 333.47C208.442 341.44 209.467 349.687 212.855 357.02C212.855 357.02 218.487 341.89 220.195 334.52C221.903 327.15 226.363 303.64 226.363 303.64Z" fill="#9E171A"/>
<mask id="mask5_191_677" style="mask-type:luminance" maskUnits="userSpaceOnUse" x="209" y="303" width="18" height="55">
<path d="M226.363 303.64C226.363 303.64 221.913 302.24 219.17 304.7C216.428 307.16 212.338 319.78 209.927 333.47C208.442 341.44 209.467 349.687 212.855 357.02C212.855 357.02 218.487 341.89 220.195 334.52C221.903 327.15 226.363 303.64 226.363 303.64Z" fill="white"/>
</mask>
<g mask="url(#mask5_191_677)">
<path opacity="0.16" d="M217.823 305.87C217.823 305.87 221.044 305.07 222.371 305.53C223.489 306.021 224.534 306.671 225.475 307.46L226.363 303.64C225.031 302.942 223.52 302.687 222.04 302.91C219.824 303.37 217.823 305.87 217.823 305.87Z" fill="black"/>
</g>
<path d="M226.363 303.64C226.363 303.64 221.913 302.24 219.17 304.7C216.428 307.16 212.338 319.78 209.927 333.47C208.442 341.44 209.467 349.687 212.855 357.02C212.855 357.02 218.487 341.89 220.195 334.52C221.903 327.15 226.363 303.64 226.363 303.64Z" stroke="#263238" stroke-linecap="round" stroke-linejoin="round"/>
<path d="M196.39 304.84L202.12 328.69L189.227 298.6" stroke="#263238" stroke-linecap="round" stroke-linejoin="round"/>
<path d="M234.132 423.06H275.886C275.886 423.06 264.369 408.06 264.369 402.93C264.369 397.8 280.18 332.07 280.893 327.3C281.605 322.53 278.745 319.23 273.016 318.86C267.287 318.49 245.444 313.72 244.371 310.05C244.371 310.05 236.133 339.77 233.273 359.95C230.814 377.26 233.361 413.18 234.132 423.06Z" fill="#9E171A"/>
<mask id="mask6_191_677" style="mask-type:luminance" maskUnits="userSpaceOnUse" x="232" y="310" width="49" height="114">
<path d="M234.132 423.06H275.886C275.886 423.06 264.369 408.06 264.369 402.93C264.369 397.8 280.18 332.07 280.893 327.3C281.605 322.53 278.745 319.23 273.016 318.86C267.287 318.49 245.444 313.72 244.371 310.05C244.371 310.05 236.133 339.77 233.273 359.95C230.814 377.26 233.361 413.18 234.132 423.06Z" fill="white"/>
</mask>
<g mask="url(#mask6_191_677)">
<path opacity="0.16" d="M273.016 318.86C268.322 318.56 252.813 315.3 246.771 312.12L248.967 317.32C252.946 319.483 257.225 321.007 261.655 321.84C268.927 323.17 275.69 322.91 280.112 329.57L280.326 329.9C280.6 328.62 280.785 327.72 280.844 327.3C281.615 322.53 278.745 319.23 273.016 318.86Z" fill="black"/>
</g>
<path d="M234.132 423.06H275.886C275.886 423.06 264.369 408.06 264.369 402.93C264.369 397.8 280.18 332.07 280.893 327.3C281.605 322.53 278.745 319.23 273.016 318.86C267.287 318.49 245.444 313.72 244.371 310.05C244.371 310.05 236.133 339.77 233.273 359.95C230.814 377.26 233.361 413.18 234.132 423.06Z" stroke="#263238" stroke-linecap="round" stroke-linejoin="round"/>
<path d="M244.371 310.05C244.371 310.05 233.322 346.05 233.273 359.95C233.273 359.95 248.968 340.48 251.017 326.8C253.067 313.12 244.371 310.05 244.371 310.05Z" fill="#9E171A"/>
<mask id="mask7_191_677" style="mask-type:luminance" maskUnits="userSpaceOnUse" x="233" y="310" width="19" height="50">
<path d="M244.371 310.05C244.371 310.05 233.322 346.05 233.273 359.95C233.273 359.95 248.968 340.48 251.017 326.8C253.067 313.12 244.371 310.05 244.371 310.05Z" fill="white"/>
</mask>
<g mask="url(#mask7_191_677)">
<path opacity="0.16" d="M242.467 314.65C244.127 314.593 245.776 314.951 247.271 315.693C248.766 316.436 250.061 317.54 251.046 318.91C251.046 318.91 248.88 312.38 244.37 310.05L242.467 314.65Z" fill="black"/>
</g>
<path d="M244.371 310.05C244.371 310.05 233.322 346.05 233.273 359.95C233.273 359.95 248.968 340.48 251.017 326.8C253.067 313.12 244.371 310.05 244.371 310.05Z" stroke="#263238" stroke-linecap="round" stroke-linejoin="round"/>
<path d="M362.32 416.29C362.32 416.29 370.411 416.63 375.711 417.41C379.245 417.901 382.803 418.191 386.369 418.28C386.369 418.28 383.441 412.22 380.318 410.51C377.194 408.8 371.533 405.74 366.79 406.42C362.047 407.1 355.264 412 355.83 413.56C356.396 415.12 358.924 415.82 362.32 416.29Z" fill="white"/>
<mask id="mask8_191_677" style="mask-type:luminance" maskUnits="userSpaceOnUse" x="355" y="406" width="32" height="13">
<path d="M362.32 416.29C362.32 416.29 370.411 416.63 375.711 417.41C379.245 417.901 382.803 418.191 386.369 418.28C386.369 418.28 383.441 412.22 380.318 410.51C377.194 408.8 371.533 405.74 366.79 406.42C362.047 407.1 355.264 412 355.83 413.56C356.396 415.12 358.924 415.82 362.32 416.29Z" fill="white"/>
</mask>
<g mask="url(#mask8_191_677)">
<path d="M362.32 416.29C362.32 416.29 370.411 416.63 375.711 417.41C379.245 417.901 382.803 418.191 386.369 418.28C386.369 418.28 383.441 412.22 380.318 410.51C377.194 408.8 371.533 405.74 366.79 406.42C362.047 407.1 355.264 412 355.83 413.56C356.396 415.12 358.924 415.82 362.32 416.29Z" fill="#9E171A"/>
<path opacity="0.5" d="M362.32 416.29C362.32 416.29 370.411 416.63 375.711 417.41C379.245 417.901 382.803 418.191 386.369 418.28C386.369 418.28 383.441 412.22 380.318 410.51C377.194 408.8 371.533 405.74 366.79 406.42C362.047 407.1 355.264 412 355.83 413.56C356.396 415.12 358.924 415.82 362.32 416.29Z" fill="white"/>
</g>
<path d="M362.32 416.29C362.32 416.29 370.411 416.63 375.711 417.41C379.245 417.901 382.803 418.191 386.369 418.28C386.369 418.28 383.441 412.22 380.318 410.51C377.194 408.8 371.533 405.74 366.79 406.42C362.047 407.1 355.264 412 355.83 413.56C356.396 415.12 358.924 415.82 362.32 416.29Z" stroke="#263238" stroke-linecap="round" stroke-linejoin="round"/>
<path d="M375.76 413.81C375.76 413.81 382.172 410.4 383.773 410.45C385.373 410.5 396.012 417.87 395.485 419.05C395.127 419.597 394.61 420.015 394.008 420.245C393.405 420.475 392.747 420.504 392.127 420.33C390.946 419.76 383.782 416.64 383.782 416.64L379.098 417.77L375.76 413.81Z" fill="white"/>
<mask id="mask9_191_677" style="mask-type:luminance" maskUnits="userSpaceOnUse" x="375" y="410" width="21" height="11">
<path d="M375.76 413.81C375.76 413.81 382.172 410.4 383.773 410.45C385.373 410.5 396.012 417.87 395.485 419.05C395.127 419.597 394.61 420.015 394.008 420.245C393.405 420.475 392.747 420.504 392.127 420.33C390.946 419.76 383.782 416.64 383.782 416.64L379.098 417.77L375.76 413.81Z" fill="white"/>
</mask>
<g mask="url(#mask9_191_677)">
<path d="M375.76 413.81C375.76 413.81 382.172 410.4 383.773 410.45C385.373 410.5 396.012 417.87 395.485 419.05C394.958 420.23 392.44 421.19 392.127 420.33C391.815 419.47 383.782 416.64 383.782 416.64L379.098 417.77L375.76 413.81Z" fill="#9E171A"/>
<path opacity="0.5" d="M375.76 413.81C375.76 413.81 382.172 410.4 383.773 410.45C385.373 410.5 396.012 417.87 395.485 419.05C394.958 420.23 392.44 421.19 392.127 420.33C391.815 419.47 383.782 416.64 383.782 416.64L379.098 417.77L375.76 413.81Z" fill="white"/>
</g>
<path d="M375.76 413.81C375.76 413.81 382.172 410.4 383.773 410.45C385.373 410.5 396.012 417.87 395.485 419.05C395.127 419.597 394.61 420.015 394.008 420.245C393.405 420.475 392.747 420.504 392.127 420.33C390.946 419.76 383.782 416.64 383.782 416.64L379.098 417.77L375.76 413.81Z" stroke="#263238" stroke-linecap="round" stroke-linejoin="round"/>
<path d="M371.182 408.2C371.182 408.2 379.732 407.92 381.43 408.8C383.128 409.68 390.8 423.16 389.648 424.14C388.496 425.12 385.315 424.83 385.412 423.74C385.51 422.65 378.346 415.43 378.346 415.43L372.773 414.18L371.182 408.2Z" fill="white"/>
<mask id="mask10_191_677" style="mask-type:luminance" maskUnits="userSpaceOnUse" x="371" y="408" width="19" height="17">
<path d="M371.182 408.2C371.182 408.2 379.732 407.92 381.43 408.8C383.128 409.68 390.8 423.16 389.648 424.14C388.496 425.12 385.315 424.83 385.412 423.74C385.51 422.65 378.346 415.43 378.346 415.43L372.773 414.18L371.182 408.2Z" fill="white"/>
</mask>
<g mask="url(#mask10_191_677)">
<path d="M371.182 408.2C371.182 408.2 379.732 407.92 381.43 408.8C383.128 409.68 390.8 423.16 389.648 424.14C388.496 425.12 385.315 424.83 385.412 423.74C385.51 422.65 378.346 415.43 378.346 415.43L372.773 414.18L371.182 408.2Z" fill="#9E171A"/>
<path opacity="0.5" d="M371.182 408.2C371.182 408.2 379.732 407.92 381.43 408.8C383.128 409.68 390.8 423.16 389.648 424.14C388.496 425.12 385.315 424.83 385.412 423.74C385.51 422.65 378.346 415.43 378.346 415.43L372.773 414.18L371.182 408.2Z" fill="white"/>
</g>
<path d="M371.182 408.2C371.182 408.2 379.732 407.92 381.43 408.8C383.128 409.68 390.8 423.16 389.648 424.14C388.496 425.12 385.315 424.83 385.412 423.74C385.51 422.65 378.346 415.43 378.346 415.43L372.773 414.18L371.182 408.2Z" stroke="#263238" stroke-linecap="round" stroke-linejoin="round"/>
<path d="M366.117 406.39C366.117 406.39 374.774 406.1 376.492 407C378.209 407.9 385.978 421.53 384.807 422.53C383.636 423.53 380.435 423.22 380.532 422.12C380.63 421.02 373.378 413.71 373.378 413.71L367.737 412.44L366.117 406.39Z" fill="white"/>
<mask id="mask11_191_677" style="mask-type:luminance" maskUnits="userSpaceOnUse" x="366" y="406" width="19" height="18">
<path d="M366.117 406.39C366.117 406.39 374.774 406.1 376.492 407C378.209 407.9 385.978 421.53 384.807 422.53C383.636 423.53 380.435 423.22 380.532 422.12C380.63 421.02 373.378 413.71 373.378 413.71L367.737 412.44L366.117 406.39Z" fill="white"/>
</mask>
<g mask="url(#mask11_191_677)">
<path d="M366.117 406.39C366.117 406.39 374.774 406.1 376.492 407C378.209 407.9 385.978 421.53 384.807 422.53C383.636 423.53 380.435 423.22 380.532 422.12C380.63 421.02 373.378 413.71 373.378 413.71L367.737 412.44L366.117 406.39Z" fill="#9E171A"/>
<path opacity="0.5" d="M366.117 406.39C366.117 406.39 374.774 406.1 376.492 407C378.209 407.9 385.978 421.53 384.807 422.53C383.636 423.53 380.435 423.22 380.532 422.12C380.63 421.02 373.378 413.71 373.378 413.71L367.737 412.44L366.117 406.39Z" fill="white"/>
</g>
<path d="M366.117 406.39C366.117 406.39 374.774 406.1 376.492 407C378.209 407.9 385.978 421.53 384.807 422.53C383.636 423.53 380.435 423.22 380.532 422.12C380.63 421.02 373.378 413.71 373.378 413.71L367.737 412.44L366.117 406.39Z" stroke="#263238" stroke-linecap="round" stroke-linejoin="round"/>
<path d="M267.687 355.57C273.953 365.46 286.534 390.52 290.204 393.34C295.933 397.74 334.231 408.42 337.92 411.34C341.61 414.26 341.356 417.19 344.85 418.26C348.344 419.33 361.442 422.4 366.439 422.88C371.436 423.36 369.201 420.19 369.201 420.19L360.681 414.19L368.108 412.31C368.108 412.31 375.555 421.49 376.951 421.99C378.346 422.49 380.806 421.99 380.65 420.86C380.376 419.05 372.432 404.24 369.611 403.61C366.791 402.98 349.671 405.41 349.671 405.41C349.671 405.41 313.764 380.6 313.12 379.72C313.12 379.72 310.973 373.48 309.216 370.91C307.459 368.34 306.347 369.08 306.347 369.08C306.347 369.08 307.069 365.77 305.995 364.67L300.266 358.8L300.061 359.08C299.085 357.08 298.109 354.8 297.036 352.2C294.039 344.97 283.43 324.68 281.644 321.75C280.307 319.56 269.103 317.99 263.422 317.33" fill="#9E171A"/>
<mask id="mask12_191_677" style="mask-type:luminance" maskUnits="userSpaceOnUse" x="263" y="317" width="118" height="106">
<path d="M267.687 355.57C273.953 365.46 286.534 390.52 290.204 393.34C295.933 397.74 334.231 408.42 337.92 411.34C341.61 414.26 341.356 417.19 344.85 418.26C348.344 419.33 361.442 422.4 366.439 422.88C371.436 423.36 369.201 420.19 369.201 420.19L360.681 414.19L368.108 412.31C368.108 412.31 375.555 421.49 376.951 421.99C378.346 422.49 380.806 421.99 380.65 420.86C380.376 419.05 372.432 404.24 369.611 403.61C366.791 402.98 349.671 405.41 349.671 405.41C349.671 405.41 313.764 380.6 313.12 379.72C313.12 379.72 310.973 373.48 309.216 370.91C307.459 368.34 306.347 369.08 306.347 369.08C306.347 369.08 307.069 365.77 305.995 364.67L300.266 358.8L300.061 359.08C299.085 357.08 298.109 354.8 297.036 352.2C294.039 344.97 283.43 324.68 281.644 321.75C280.307 319.56 269.103 317.99 263.422 317.33" fill="white"/>
</mask>
<g mask="url(#mask12_191_677)">
<path opacity="0.16" d="M292.634 356.2C297.319 360.46 295.757 360.46 294.713 364.2C293.669 367.94 295.494 362.87 299.915 363.14C304.336 363.41 303.038 369.26 302.511 370.33C301.984 371.4 307.977 372.73 306.932 375.12C305.888 377.51 299.915 380.98 296.538 384.45C293.161 387.92 305.371 378.85 309.529 378.59C310.797 378.5 311.842 378.67 312.72 378.65C311.799 375.974 310.615 373.401 309.187 370.97C307.391 368.4 306.318 369.14 306.318 369.14C306.318 369.14 307.04 365.83 305.966 364.73L300.237 358.86L300.032 359.14C299.056 357.14 298.08 354.86 297.007 352.26C294.01 345.03 283.401 324.74 281.615 321.81C280.278 319.62 269.073 318.05 263.393 317.39L263.91 322.02L264.037 322.12C264.037 322.12 271.055 323.45 273.397 323.72C275.739 323.99 278.599 326.11 278.336 327.72C278.072 329.33 271.318 336.51 273.397 337.05C275.476 337.59 277.818 331.72 280.161 332.52C282.503 333.32 287.92 351.94 292.634 356.2Z" fill="black"/>
</g>
<path d="M267.687 355.57C273.953 365.46 286.534 390.52 290.204 393.34C295.933 397.74 334.231 408.42 337.92 411.34C341.61 414.26 341.356 417.19 344.85 418.26C348.344 419.33 361.442 422.4 366.439 422.88C371.436 423.36 369.201 420.19 369.201 420.19L360.681 414.19L368.108 412.31C368.108 412.31 375.555 421.49 376.951 421.99C378.346 422.49 380.806 421.99 380.65 420.86C380.376 419.05 372.432 404.24 369.611 403.61C366.791 402.98 349.671 405.41 349.671 405.41C349.671 405.41 313.764 380.6 313.12 379.72C313.12 379.72 310.973 373.48 309.216 370.91C307.459 368.34 306.347 369.08 306.347 369.08C306.347 369.08 307.069 365.77 305.995 364.67L300.266 358.8L300.061 359.08C299.085 357.08 298.109 354.8 297.036 352.2C294.039 344.97 283.43 324.68 281.644 321.75C280.307 319.56 269.103 317.99 263.422 317.33" stroke="#263238" stroke-linecap="round" stroke-linejoin="round"/>
<path d="M267.785 342C267.521 342.9 267.297 343.8 267.121 344.72" stroke="#263238" stroke-linecap="round" stroke-linejoin="round"/>
<path d="M277.271 325.45C274.205 329.032 271.618 333.017 269.581 337.3" stroke="#263238" stroke-linecap="round" stroke-linejoin="round"/>
<path d="M291.609 382.23C294.244 378.23 298.441 373.16 303.067 371.71" stroke="#263238" stroke-linecap="round" stroke-linejoin="round"/>
<path d="M288.691 387.15C288.691 387.15 289.159 386.21 289.999 384.79" stroke="#263238" stroke-linecap="round" stroke-linejoin="round"/>
<path d="M288.691 380.83C288.691 380.83 293.483 368.55 298.275 365.39C303.067 362.23 300.325 368.55 300.325 368.55" stroke="#263238" stroke-linecap="round" stroke-linejoin="round"/>
<path d="M337.92 411.35C341.619 414.28 341.356 417.2 344.85 418.27C348.344 419.34 361.442 422.41 366.439 422.89C371.436 423.37 369.201 420.2 369.201 420.2L360.681 414.2L368.108 412.32C368.108 412.32 375.555 421.5 376.95 422C378.346 422.5 381.001 422.68 380.649 420.87C379.966 417.37 372.432 404.25 369.611 403.62C366.79 402.99 349.671 405.42 349.671 405.42C349.671 405.42 316.965 382.42 313.384 379.93C299.495 381.3 292.888 388.75 290.106 393.22L290.204 393.3C295.933 397.74 334.231 408.42 337.92 411.35Z" fill="white"/>
<mask id="mask13_191_677" style="mask-type:luminance" maskUnits="userSpaceOnUse" x="290" y="379" width="91" height="44">
<path d="M337.92 411.35C341.619 414.28 341.356 417.2 344.85 418.27C348.344 419.34 361.442 422.41 366.439 422.89C371.436 423.37 369.201 420.2 369.201 420.2L360.681 414.2L368.108 412.32C368.108 412.32 375.555 421.5 376.95 422C378.346 422.5 381.001 422.68 380.649 420.87C379.966 417.37 372.432 404.25 369.611 403.62C366.79 402.99 349.671 405.42 349.671 405.42C349.671 405.42 316.965 382.42 313.384 379.93C299.495 381.3 292.888 388.75 290.106 393.22L290.204 393.3C295.933 397.74 334.231 408.42 337.92 411.35Z" fill="white"/>
</mask>
<g mask="url(#mask13_191_677)">
<path d="M380.64 420.91C378.863 416.46 372.422 404.29 369.601 403.66C366.781 403.03 349.661 405.46 349.661 405.46C349.661 405.46 316.956 382.46 313.374 379.97C309.728 380.295 306.152 381.182 302.765 382.6C307.928 385.6 342.341 405.6 346.685 406.49C351.291 407.49 366.663 404.9 369.367 406.76C371.085 407.94 376.199 416.25 379.654 422.15C380.64 422 381.001 421.81 380.64 420.91Z" fill="#9E171A"/>
<path opacity="0.5" d="M380.64 420.91C377.868 414.54 372.422 404.29 369.601 403.66C366.781 403.03 349.661 405.46 349.661 405.46C349.661 405.46 316.956 382.46 313.374 379.97C309.728 380.295 306.152 381.182 302.765 382.6C307.928 385.6 342.341 405.6 346.685 406.49C351.291 407.49 366.663 404.9 369.367 406.76C371.085 407.94 376.199 416.25 379.654 422.15C380.64 422 381.03 421.8 380.64 420.91Z" fill="white"/>
</g>
<path d="M337.92 411.35C341.619 414.28 341.356 417.2 344.85 418.27C348.344 419.34 361.442 422.41 366.439 422.89C371.436 423.37 369.201 420.2 369.201 420.2L360.681 414.2L368.108 412.32C368.108 412.32 375.555 421.5 376.95 422C378.346 422.5 381.001 422.68 380.649 420.87C379.966 417.37 372.432 404.25 369.611 403.62C366.79 402.99 349.671 405.42 349.671 405.42C349.671 405.42 316.965 382.42 313.384 379.93C299.495 381.3 292.888 388.75 290.106 393.22L290.204 393.3C295.933 397.74 334.231 408.42 337.92 411.35Z" stroke="#263238" stroke-linecap="round" stroke-linejoin="round"/>
<path d="M251.661 236.73L222.264 249.3C221.908 254.594 220.629 259.779 218.487 264.61C215.012 272.14 217.042 286.39 220.38 294.08C223.718 301.77 238.427 298.76 243.804 297.8C247.452 297.089 251.024 296.021 254.472 294.61C256.042 295.23 257.74 295.43 259.407 295.192C261.073 294.955 262.653 294.286 263.998 293.25C263.998 293.25 248.265 248 251.661 236.73Z" fill="white"/>
<mask id="mask14_191_677" style="mask-type:luminance" maskUnits="userSpaceOnUse" x="216" y="236" width="48" height="64">
<path d="M251.661 236.73L222.264 249.3C221.908 254.594 220.629 259.779 218.487 264.61C215.012 272.14 217.042 286.39 220.38 294.08C223.718 301.77 238.427 298.76 243.804 297.8C247.452 297.089 251.024 296.021 254.472 294.61C256.042 295.23 257.74 295.43 259.407 295.192C261.073 294.955 262.653 294.286 263.998 293.25C263.998 293.25 248.265 248 251.661 236.73Z" fill="white"/>
</mask>
<g mask="url(#mask14_191_677)">
<path d="M251.661 236.73L222.264 249.3C221.908 254.594 220.629 259.779 218.487 264.61C215.012 272.14 217.042 286.39 220.38 294.08C220.939 295.317 221.838 296.359 222.967 297.08V296.5C222.967 296.5 217.511 282.65 218.545 274.66C219.58 266.67 224.011 262.66 224.528 257.61C225.046 252.56 224.782 250.16 234.669 246.43C244.556 242.7 248.704 239.24 249.738 242.96C250.773 246.68 254.941 271.2 257.8 277.06C260.66 282.92 260.396 289.06 255.985 291.71C251.526 294.452 246.749 296.609 241.765 298.13L243.843 297.76C247.491 297.049 251.063 295.981 254.511 294.57C256.081 295.19 257.779 295.39 259.446 295.152C261.112 294.915 262.692 294.246 264.037 293.21C264.037 293.21 248.265 248 251.661 236.73Z" fill="#9E171A"/>
<path opacity="0.5" d="M251.661 236.73L222.264 249.3C221.908 254.594 220.629 259.779 218.487 264.61C215.012 272.14 217.042 286.39 220.38 294.08C220.939 295.317 221.838 296.359 222.967 297.08V296.5C222.967 296.5 217.511 282.65 218.545 274.66C219.58 266.67 224.011 262.66 224.528 257.61C225.046 252.56 224.782 250.16 234.669 246.43C244.556 242.7 248.704 239.24 249.738 242.96C250.773 246.68 254.941 271.2 257.8 277.06C260.66 282.92 260.396 289.06 255.985 291.71C251.526 294.452 246.749 296.609 241.765 298.13L243.843 297.76C247.491 297.049 251.063 295.981 254.511 294.57C256.081 295.19 257.779 295.39 259.446 295.152C261.112 294.915 262.692 294.246 264.037 293.21C264.037 293.21 248.265 248 251.661 236.73Z" fill="white"/>
</g>
<path d="M251.661 236.73L222.264 249.3C221.908 254.594 220.629 259.779 218.487 264.61C215.012 272.14 217.042 286.39 220.38 294.08C223.718 301.77 238.427 298.76 243.804 297.8C247.452 297.089 251.024 296.021 254.472 294.61C256.042 295.23 257.74 295.43 259.407 295.192C261.073 294.955 262.653 294.286 263.998 293.25C263.998 293.25 248.265 248 251.661 236.73Z" stroke="#263238" stroke-linecap="round" stroke-linejoin="round"/>
<path d="M236.807 256.44C236.886 258.211 236.672 259.983 236.172 261.68C235.392 263.68 228.023 271.54 228.247 272.39C228.472 273.24 229.135 275.97 230.443 276.23" stroke="#263238" stroke-linecap="round" stroke-linejoin="round"/>
<path d="M244.976 263.47C246 261.37 249.368 263.42 249.319 268.15" stroke="#263238" stroke-linecap="round" stroke-linejoin="round"/>
<path d="M228.286 257.29C228.286 257.29 231.156 256 233.722 260.76" stroke="#263238" stroke-linecap="round" stroke-linejoin="round"/>
<path d="M240.896 270.4C244.212 270.571 247.364 271.926 249.807 274.23" stroke="#263238" stroke-width="0.5" stroke-linecap="round" stroke-linejoin="round"/>
<path d="M224.821 264.15C226.536 264.385 228.21 264.859 229.799 265.56" stroke="#263238" stroke-width="0.5" stroke-linecap="round" stroke-linejoin="round"/>
<path d="M236.484 252C235.727 251.589 234.886 251.365 234.029 251.344C233.172 251.323 232.322 251.507 231.546 251.88C228.92 253.17 227.31 254.59 227.486 252.94C227.661 251.29 230.746 249.47 231.673 249.23C232.6 248.99 236.748 248.33 236.484 252Z" fill="#263238"/>
<path d="M243.844 248.27C246.58 250.538 248.754 253.437 250.188 256.73C252.14 261.73 253.682 256.27 252.14 253C250.598 249.73 246.137 246.25 243.844 248.27Z" fill="#263238"/>
<path d="M264.427 301.8C264.427 304.13 263.139 306.02 261.558 306.02C259.977 306.02 258.698 304.13 258.698 301.8C258.698 299.47 259.977 293.54 261.558 293.54C263.139 293.54 264.427 299.47 264.427 301.8Z" fill="#9E171A" stroke="#263238" stroke-linecap="round" stroke-linejoin="round"/>
<path d="M245.229 262.56C245.117 262.866 245.029 263.18 244.966 263.5C244.683 264.98 244.4 268.07 244.966 268.2C245.532 268.33 246.918 265.44 247.162 263.96C247.217 263.67 247.25 263.376 247.26 263.08C246.593 262.866 245.916 262.692 245.229 262.56Z" fill="#263238"/>
<path d="M228.579 257C228.492 257.261 228.424 257.529 228.374 257.8C228.081 259.28 228.091 262.53 228.706 262.65C229.321 262.77 230.326 259.73 230.609 258.25C230.679 257.891 230.719 257.526 230.726 257.16C230.027 256.963 229.298 256.909 228.579 257Z" fill="#263238"/>
<path d="M244.976 263.52L245.952 261.66C247.499 261.969 248.901 262.8 249.934 264.02" stroke="#263238" stroke-width="0.75" stroke-linecap="round" stroke-linejoin="round"/>
<path d="M228.579 257L229.555 255.83C229.555 255.83 229.975 255.62 232.278 256.69" stroke="#263238" stroke-width="0.75" stroke-linecap="round" stroke-linejoin="round"/>
<path d="M224.88 284.12C224.88 284.12 226.52 281.03 228.716 281.03C230.912 281.03 232.551 286.08 232.551 286.08" stroke="#263238" stroke-linecap="round" stroke-linejoin="round"/>
<path d="M154.208 417.38C152.086 417.272 150.001 416.763 148.059 415.88C147.788 415.777 147.541 415.619 147.331 415.416C147.122 415.212 146.955 414.967 146.842 414.695C146.728 414.423 146.669 414.13 146.669 413.834C146.669 413.539 146.728 413.246 146.842 412.974C146.956 412.702 147.123 412.457 147.333 412.254C147.542 412.05 147.79 411.892 148.061 411.79C148.332 411.688 148.62 411.643 148.908 411.658C149.197 411.674 149.479 411.749 149.738 411.88C151.69 412.73 154.218 413.26 154.891 412.96C156.13 411.54 158.034 402.96 155.574 398.82C155.018 397.9 154.501 397.73 154.159 397.69C152.763 397.49 150.694 398.96 149.962 399.69C149.758 399.887 149.519 400.041 149.257 400.143C148.995 400.245 148.716 400.293 148.436 400.285C148.156 400.277 147.88 400.212 147.625 400.094C147.369 399.977 147.139 399.809 146.946 399.6C146.754 399.391 146.604 399.146 146.504 398.877C146.405 398.609 146.357 398.323 146.366 398.036C146.374 397.749 146.437 397.467 146.552 397.205C146.666 396.943 146.83 396.707 147.034 396.51C147.415 396.13 150.938 392.88 154.696 393.4C155.628 393.539 156.516 393.897 157.291 394.445C158.066 394.993 158.708 395.717 159.166 396.56C162.787 402.61 160.308 414.12 157.526 416.4C156.56 417.101 155.39 417.446 154.208 417.38Z" fill="white"/>
<mask id="mask15_191_677" style="mask-type:luminance" maskUnits="userSpaceOnUse" x="146" y="393" width="15" height="25">
<path d="M154.208 417.38C152.086 417.272 150.001 416.763 148.059 415.88C147.788 415.777 147.541 415.619 147.331 415.416C147.122 415.212 146.955 414.967 146.842 414.695C146.728 414.423 146.669 414.13 146.669 413.834C146.669 413.539 146.728 413.246 146.842 412.974C146.956 412.702 147.123 412.457 147.333 412.254C147.542 412.05 147.79 411.892 148.061 411.79C148.332 411.688 148.62 411.643 148.908 411.658C149.197 411.674 149.479 411.749 149.738 411.88C151.69 412.73 154.218 413.26 154.891 412.96C156.13 411.54 158.034 402.96 155.574 398.82C155.018 397.9 154.501 397.73 154.159 397.69C152.763 397.49 150.694 398.96 149.962 399.69C149.758 399.887 149.519 400.041 149.257 400.143C148.995 400.245 148.716 400.293 148.436 400.285C148.156 400.277 147.88 400.212 147.625 400.094C147.369 399.977 147.139 399.809 146.946 399.6C146.754 399.391 146.604 399.146 146.504 398.877C146.405 398.609 146.357 398.323 146.366 398.036C146.374 397.749 146.437 397.467 146.552 397.205C146.666 396.943 146.83 396.707 147.034 396.51C147.415 396.13 150.938 392.88 154.696 393.4C155.628 393.539 156.516 393.897 157.291 394.445C158.066 394.993 158.708 395.717 159.166 396.56C162.787 402.61 160.308 414.12 157.526 416.4C156.56 417.101 155.39 417.446 154.208 417.38Z" fill="white"/>
</mask>
<g mask="url(#mask15_191_677)">
<path d="M157.067 398.16C156.812 397.539 156.411 396.992 155.9 396.566C155.39 396.141 154.785 395.85 154.139 395.72C151.699 395.32 149.406 397.83 149.152 398.11C148.919 398.398 148.775 398.751 148.738 399.123C148.702 399.495 148.774 399.87 148.947 400.2C149.331 400.121 149.686 399.934 149.972 399.66C150.704 398.96 152.773 397.49 154.169 397.66C154.51 397.66 155.028 397.87 155.584 398.79C158.043 402.89 156.14 411.51 154.901 412.93C154.227 413.23 151.709 412.7 149.747 411.85C149.506 411.746 149.248 411.688 148.986 411.68C149.004 411.954 149.088 412.219 149.231 412.451C149.375 412.684 149.572 412.876 149.806 413.01C151.04 413.685 152.402 414.081 153.798 414.17C154.595 414.209 155.375 413.929 155.974 413.39C157.809 411.66 159.429 402.81 157.067 398.16Z" fill="#9E171A"/>
<path opacity="0.5" d="M157.067 398.16C156.812 397.539 156.411 396.992 155.9 396.566C155.39 396.141 154.785 395.85 154.139 395.72C151.699 395.32 149.406 397.83 149.152 398.11C148.919 398.398 148.775 398.751 148.738 399.123C148.702 399.495 148.774 399.87 148.947 400.2C149.331 400.121 149.686 399.934 149.972 399.66C150.704 398.96 152.773 397.49 154.169 397.66C154.51 397.66 155.028 397.87 155.584 398.79C158.043 402.89 156.14 411.51 154.901 412.93C154.227 413.23 151.709 412.7 149.747 411.85C149.506 411.746 149.248 411.688 148.986 411.68C149.004 411.954 149.088 412.219 149.231 412.451C149.375 412.684 149.572 412.876 149.806 413.01C151.04 413.685 152.402 414.081 153.798 414.17C154.595 414.209 155.375 413.929 155.974 413.39C157.809 411.66 159.429 402.81 157.067 398.16Z" fill="white"/>
</g>
<path d="M154.208 417.38C152.086 417.272 150.001 416.763 148.059 415.88C147.788 415.777 147.541 415.619 147.331 415.416C147.122 415.212 146.955 414.967 146.842 414.695C146.728 414.423 146.669 414.13 146.669 413.834C146.669 413.539 146.728 413.246 146.842 412.974C146.956 412.702 147.123 412.457 147.333 412.254C147.542 412.05 147.79 411.892 148.061 411.79C148.332 411.688 148.62 411.643 148.908 411.658C149.197 411.674 149.479 411.749 149.738 411.88C151.69 412.73 154.218 413.26 154.891 412.96C156.13 411.54 158.034 402.96 155.574 398.82C155.018 397.9 154.501 397.73 154.159 397.69C152.763 397.49 150.694 398.96 149.962 399.69C149.758 399.887 149.519 400.041 149.257 400.143C148.995 400.245 148.716 400.293 148.436 400.285C148.156 400.277 147.88 400.212 147.625 400.094C147.369 399.977 147.139 399.809 146.946 399.6C146.754 399.391 146.604 399.146 146.504 398.877C146.405 398.609 146.357 398.323 146.366 398.036C146.374 397.749 146.437 397.467 146.552 397.205C146.666 396.943 146.83 396.707 147.034 396.51C147.415 396.13 150.938 392.88 154.696 393.4C155.628 393.539 156.516 393.897 157.291 394.445C158.066 394.993 158.708 395.717 159.166 396.56C162.787 402.61 160.308 414.12 157.526 416.4C156.56 417.101 155.39 417.446 154.208 417.38Z" stroke="#263238" stroke-linecap="round" stroke-linejoin="round"/>
<path d="M150.48 391.58H127.007V423.5H150.48V391.58Z" fill="white"/>
<mask id="mask16_191_677" style="mask-type:luminance" maskUnits="userSpaceOnUse" x="127" y="391" width="24" height="33">
<path d="M150.48 391.58H127.007V423.5H150.48V391.58Z" fill="white"/>
</mask>
<g mask="url(#mask16_191_677)">
<path d="M136.62 391.58H127.007V423.5H136.62V391.58Z" fill="#9E171A"/>
<path opacity="0.5" d="M136.62 391.58H127.007V423.5H136.62V391.58Z" fill="white"/>
</g>
<path d="M150.48 391.58H127.007V423.5H150.48V391.58Z" stroke="#263238" stroke-linecap="round" stroke-linejoin="round"/>
<path d="M279.468 423.06H179.194L175.924 366.58C175.834 366.032 175.86 365.471 176.002 364.935C176.144 364.399 176.398 363.901 176.746 363.475C177.093 363.049 177.527 362.706 178.017 362.468C178.508 362.231 179.042 362.105 179.584 362.1H279.038C279.584 362.099 280.123 362.221 280.617 362.456C281.112 362.691 281.551 363.033 281.903 363.46C282.256 363.886 282.513 364.387 282.657 364.926C282.801 365.464 282.828 366.029 282.737 366.58L279.468 423.06Z" fill="#263238" stroke="#263238" stroke-linecap="round" stroke-linejoin="round"/>
<path d="M184.132 363.45H278.316C278.848 363.444 279.375 363.558 279.86 363.783C280.345 364.008 280.775 364.339 281.122 364.752C281.469 365.166 281.723 365.652 281.868 366.176C282.012 366.701 282.042 367.252 281.957 367.79" stroke="white" stroke-linecap="round" stroke-linejoin="round"/>
<path d="M176.656 366.9C176.735 365.955 177.158 365.075 177.842 364.435C178.526 363.796 179.42 363.444 180.346 363.45" stroke="white" stroke-linecap="round" stroke-linejoin="round"/>
<path d="M279.888 417.56H178.774V423.06H279.888V417.56Z" fill="white" stroke="#263238" stroke-linecap="round" stroke-linejoin="round"/>
<path d="M228.97 397.2C232.926 397.2 236.133 395.23 236.133 392.8C236.133 390.37 232.926 388.4 228.97 388.4C225.013 388.4 221.806 390.37 221.806 392.8C221.806 395.23 225.013 397.2 228.97 397.2Z" fill="white" stroke="#263238" stroke-linecap="round" stroke-linejoin="round"/>
<path d="M432.397 422.41H55.7979V431.78H432.397V422.41Z" fill="#263238"/>
<path d="M334.749 75H153.574C147.466 75 142.516 80.0726 142.516 86.33V192.84C142.516 199.097 147.466 204.17 153.574 204.17H334.749C340.856 204.17 345.807 199.097 345.807 192.84V86.33C345.807 80.0726 340.856 75 334.749 75Z" fill="#9E171A"/>
<path d="M248.942 149.23C265.376 146.524 276.558 130.68 273.917 113.841C271.275 97.003 255.812 85.5464 239.377 88.2526C222.943 90.9587 211.761 106.803 214.402 123.641C217.044 140.48 232.507 151.936 248.942 149.23Z" fill="#263238"/>
<path d="M243.932 124.45L233.889 137.66C233.547 138.21 233.078 138.664 232.522 138.982C231.967 139.3 231.343 139.471 230.707 139.48C229.834 139.492 228.993 139.151 228.365 138.53C228.045 138.23 227.793 137.863 227.624 137.454C227.456 137.045 227.376 136.604 227.389 136.16C227.42 135.166 227.762 134.209 228.365 133.43L239.813 118.92L229.077 104.4C228.578 103.719 228.305 102.892 228.296 102.04C228.294 101.532 228.394 101.029 228.59 100.563C228.787 100.096 229.076 99.6765 229.438 99.33C229.779 98.9657 230.188 98.676 230.641 98.4783C231.094 98.2807 231.581 98.1792 232.073 98.18C232.704 98.1905 233.322 98.3625 233.871 98.6804C234.42 98.9983 234.882 99.452 235.216 100L244.918 113.09L254.678 100.22C255.026 99.6196 255.514 99.1166 256.098 98.7555C256.682 98.3945 257.344 98.1865 258.025 98.15C258.448 98.149 258.866 98.2372 259.254 98.4093C259.642 98.5813 259.991 98.8335 260.28 99.15C260.587 99.4468 260.833 99.8047 261 100.202C261.168 100.599 261.255 101.027 261.256 101.46C261.245 102.235 260.985 102.984 260.514 103.59L249.026 118.65L260.124 133.65C260.648 134.321 260.94 135.151 260.953 136.01C260.956 136.507 260.854 136.998 260.654 137.451C260.453 137.903 260.159 138.306 259.792 138.63C259.076 139.336 258.121 139.73 257.127 139.73C256.494 139.722 255.872 139.551 255.32 139.233C254.767 138.915 254.301 138.46 253.965 137.91L243.932 124.45Z" fill="white"/>
<path d="M301.584 181.8H186.699C184.369 181.8 182.135 180.852 180.488 179.164C178.841 177.476 177.915 175.187 177.915 172.8C177.915 170.413 178.841 168.124 180.488 166.436C182.135 164.748 184.369 163.8 186.699 163.8H301.584C303.914 163.8 306.148 164.748 307.795 166.436C309.443 168.124 310.368 170.413 310.368 172.8C310.368 175.187 309.443 177.476 307.795 179.164C306.148 180.852 303.914 181.8 301.584 181.8Z" fill="white"/>
<path d="M202.442 175.7C202.365 175.7 202.289 175.684 202.219 175.653C202.149 175.622 202.085 175.577 202.032 175.52C201.974 175.461 201.929 175.391 201.899 175.314C201.869 175.236 201.854 175.153 201.856 175.07C201.856 174.929 201.893 174.791 201.964 174.67L202.842 173.27H201.046C200.963 173.274 200.88 173.261 200.803 173.23C200.726 173.199 200.655 173.151 200.597 173.09C200.497 172.97 200.442 172.818 200.442 172.66C200.442 172.502 200.497 172.35 200.597 172.23C200.655 172.169 200.726 172.122 200.803 172.091C200.88 172.059 200.963 172.046 201.046 172.05L202.813 172.1L202.032 170.8C201.954 170.667 201.91 170.515 201.905 170.36C201.903 170.277 201.917 170.194 201.948 170.116C201.978 170.039 202.023 169.969 202.081 169.91C202.136 169.853 202.201 169.807 202.273 169.777C202.345 169.746 202.422 169.73 202.501 169.73C202.61 169.728 202.717 169.76 202.809 169.82C202.901 169.881 202.974 169.968 203.018 170.07L203.877 171.64L204.697 170.14C204.748 170.023 204.83 169.923 204.933 169.851C205.037 169.779 205.157 169.737 205.282 169.73C205.359 169.73 205.435 169.746 205.505 169.777C205.576 169.808 205.639 169.853 205.692 169.91C205.749 169.965 205.795 170.032 205.825 170.106C205.855 170.18 205.87 170.26 205.868 170.34C205.866 170.482 205.826 170.621 205.751 170.74L204.892 172.15L206.678 172.1C206.761 172.095 206.844 172.109 206.922 172.14C206.999 172.171 207.069 172.219 207.127 172.28C207.227 172.4 207.282 172.552 207.282 172.71C207.282 172.868 207.227 173.02 207.127 173.14C207.069 173.202 206.999 173.249 206.922 173.281C206.844 173.312 206.761 173.325 206.678 173.32H204.872L205.673 174.6C205.763 174.755 205.813 174.93 205.819 175.11C205.822 175.191 205.809 175.272 205.78 175.347C205.751 175.423 205.708 175.492 205.653 175.55C205.602 175.606 205.54 175.651 205.471 175.682C205.402 175.713 205.328 175.729 205.253 175.73C205.132 175.727 205.015 175.689 204.914 175.62C204.814 175.551 204.735 175.454 204.687 175.34L203.877 173.87L203.067 175.34C203.008 175.456 202.918 175.552 202.807 175.616C202.696 175.679 202.569 175.709 202.442 175.7Z" fill="black"/>
<path d="M211.401 175.7C211.325 175.7 211.249 175.684 211.178 175.653C211.108 175.622 211.044 175.577 210.992 175.52C210.934 175.461 210.888 175.391 210.858 175.314C210.828 175.236 210.814 175.153 210.816 175.07C210.816 174.929 210.853 174.791 210.923 174.67L211.802 173.27H210.006C209.923 173.274 209.84 173.261 209.762 173.23C209.685 173.199 209.615 173.151 209.557 173.09C209.457 172.97 209.401 172.818 209.401 172.66C209.401 172.502 209.457 172.35 209.557 172.23C209.615 172.169 209.685 172.122 209.762 172.09C209.84 172.059 209.923 172.046 210.006 172.05L211.772 172.1L210.943 170.75C210.864 170.617 210.821 170.465 210.816 170.31C210.814 170.227 210.828 170.144 210.858 170.066C210.888 169.989 210.934 169.919 210.992 169.86C211.046 169.803 211.112 169.757 211.184 169.727C211.256 169.696 211.333 169.68 211.411 169.68C211.521 169.678 211.628 169.71 211.72 169.77C211.812 169.831 211.884 169.918 211.929 170.02L212.787 171.59L213.607 170.09C213.659 169.973 213.741 169.873 213.844 169.801C213.947 169.729 214.068 169.687 214.193 169.68C214.27 169.68 214.345 169.696 214.416 169.727C214.486 169.758 214.55 169.803 214.603 169.86C214.66 169.915 214.705 169.982 214.735 170.056C214.766 170.13 214.78 170.21 214.778 170.29C214.777 170.432 214.737 170.571 214.661 170.69L213.802 172.1L215.589 172.05C215.672 172.045 215.755 172.058 215.832 172.09C215.91 172.121 215.98 172.169 216.037 172.23C216.138 172.35 216.193 172.502 216.193 172.66C216.193 172.818 216.138 172.97 216.037 173.09C215.98 173.151 215.91 173.199 215.832 173.23C215.755 173.262 215.672 173.275 215.589 173.27H213.783L214.583 174.55C214.674 174.705 214.724 174.88 214.73 175.06C214.732 175.141 214.719 175.222 214.691 175.297C214.662 175.373 214.619 175.442 214.564 175.5C214.512 175.556 214.45 175.601 214.382 175.632C214.313 175.663 214.239 175.679 214.164 175.68C214.042 175.678 213.924 175.64 213.824 175.571C213.723 175.502 213.645 175.404 213.597 175.29L212.787 173.82L211.977 175.29C211.929 175.407 211.85 175.508 211.748 175.581C211.646 175.653 211.526 175.695 211.401 175.7Z" fill="black"/>
<path d="M220.361 175.7C220.285 175.7 220.209 175.684 220.138 175.653C220.068 175.622 220.004 175.577 219.952 175.52C219.894 175.461 219.848 175.391 219.818 175.314C219.788 175.236 219.774 175.153 219.776 175.07C219.776 174.929 219.813 174.791 219.883 174.67L220.762 173.27H218.966C218.883 173.274 218.8 173.261 218.722 173.23C218.645 173.199 218.575 173.151 218.517 173.09C218.416 172.97 218.361 172.818 218.361 172.66C218.361 172.502 218.416 172.35 218.517 172.23C218.575 172.169 218.645 172.122 218.722 172.09C218.8 172.059 218.883 172.046 218.966 172.05L220.732 172.1L219.903 170.75C219.824 170.617 219.781 170.465 219.776 170.31C219.774 170.227 219.788 170.144 219.818 170.066C219.848 169.989 219.894 169.919 219.952 169.86C220.006 169.803 220.072 169.757 220.144 169.727C220.216 169.696 220.293 169.68 220.371 169.68C220.48 169.678 220.588 169.71 220.68 169.77C220.772 169.831 220.844 169.918 220.888 170.02L221.747 171.59L222.567 170.09C222.619 169.973 222.701 169.873 222.804 169.801C222.907 169.729 223.028 169.687 223.153 169.68C223.229 169.68 223.305 169.696 223.376 169.727C223.446 169.758 223.51 169.803 223.563 169.86C223.62 169.915 223.665 169.982 223.695 170.056C223.726 170.13 223.74 170.21 223.738 170.29C223.737 170.432 223.696 170.571 223.621 170.69L222.762 172.1L224.548 172.05C224.632 172.045 224.715 172.058 224.792 172.09C224.87 172.121 224.94 172.169 224.997 172.23C225.098 172.35 225.153 172.502 225.153 172.66C225.153 172.818 225.098 172.97 224.997 173.09C224.94 173.151 224.87 173.199 224.792 173.23C224.715 173.262 224.632 173.275 224.548 173.27H222.743L223.543 174.55C223.633 174.705 223.684 174.88 223.69 175.06C223.692 175.141 223.679 175.222 223.651 175.297C223.622 175.373 223.579 175.442 223.524 175.5C223.472 175.556 223.41 175.601 223.342 175.632C223.273 175.663 223.199 175.679 223.124 175.68C223.002 175.678 222.884 175.64 222.784 175.571C222.683 175.502 222.605 175.404 222.557 175.29L221.747 173.82L220.937 175.29C220.889 175.407 220.81 175.508 220.708 175.581C220.606 175.653 220.486 175.695 220.361 175.7Z" fill="black"/>
<path d="M229.36 175.7C229.283 175.7 229.207 175.684 229.137 175.653C229.067 175.622 229.003 175.577 228.95 175.52C228.892 175.461 228.847 175.391 228.817 175.314C228.787 175.236 228.772 175.153 228.774 175.07C228.774 174.929 228.811 174.791 228.882 174.67L229.76 173.27H227.964C227.881 173.274 227.798 173.261 227.721 173.23C227.643 173.199 227.573 173.151 227.515 173.09C227.415 172.97 227.36 172.818 227.36 172.66C227.36 172.502 227.415 172.35 227.515 172.23C227.573 172.169 227.643 172.122 227.721 172.09C227.798 172.059 227.881 172.046 227.964 172.05L229.731 172.1L228.901 170.75C228.823 170.617 228.779 170.465 228.774 170.31C228.772 170.227 228.787 170.144 228.817 170.066C228.847 169.989 228.892 169.919 228.95 169.86C229.005 169.803 229.07 169.757 229.142 169.727C229.214 169.696 229.292 169.68 229.37 169.68C229.479 169.678 229.586 169.71 229.678 169.77C229.77 169.831 229.843 169.918 229.887 170.02L230.746 171.59L231.566 170.09C231.617 169.973 231.699 169.873 231.803 169.801C231.906 169.729 232.026 169.687 232.151 169.68C232.228 169.68 232.304 169.696 232.374 169.727C232.445 169.758 232.508 169.803 232.561 169.86C232.618 169.915 232.664 169.982 232.694 170.056C232.724 170.13 232.739 170.21 232.737 170.29C232.736 170.432 232.695 170.571 232.62 170.69L231.761 172.1L233.547 172.05C233.63 172.045 233.713 172.058 233.791 172.09C233.868 172.121 233.938 172.169 233.996 172.23C234.096 172.35 234.151 172.502 234.151 172.66C234.151 172.818 234.096 172.97 233.996 173.09C233.938 173.151 233.868 173.199 233.791 173.23C233.713 173.262 233.63 173.275 233.547 173.27H231.741L232.542 174.55C232.632 174.705 232.682 174.88 232.688 175.06C232.691 175.141 232.678 175.222 232.649 175.297C232.621 175.373 232.577 175.442 232.522 175.5C232.471 175.556 232.409 175.601 232.34 175.632C232.271 175.663 232.197 175.679 232.122 175.68C232.001 175.677 231.884 175.639 231.784 175.57C231.683 175.501 231.604 175.403 231.556 175.29L230.746 173.82L229.936 175.29C229.888 175.407 229.808 175.508 229.706 175.581C229.604 175.653 229.484 175.695 229.36 175.7Z" fill="black"/>
<path d="M238.281 175.7C238.204 175.7 238.128 175.684 238.058 175.653C237.987 175.622 237.924 175.577 237.871 175.52C237.813 175.461 237.768 175.391 237.738 175.314C237.707 175.236 237.693 175.153 237.695 175.07C237.7 174.93 237.737 174.793 237.803 174.67L238.681 173.27H236.885C236.802 173.274 236.719 173.261 236.642 173.23C236.564 173.199 236.494 173.151 236.436 173.09C236.336 172.97 236.281 172.818 236.281 172.66C236.281 172.502 236.336 172.35 236.436 172.23C236.494 172.169 236.564 172.122 236.642 172.09C236.719 172.059 236.802 172.046 236.885 172.05L238.652 172.1L237.822 170.75C237.744 170.617 237.7 170.465 237.695 170.31C237.693 170.227 237.707 170.144 237.738 170.066C237.768 169.989 237.813 169.919 237.871 169.86C237.926 169.803 237.991 169.757 238.063 169.727C238.135 169.696 238.212 169.68 238.291 169.68C238.4 169.678 238.507 169.71 238.599 169.77C238.691 169.831 238.764 169.918 238.808 170.02L239.667 171.59L240.487 170.09C240.538 169.973 240.62 169.873 240.723 169.801C240.827 169.729 240.947 169.687 241.072 169.68C241.149 169.679 241.225 169.694 241.296 169.725C241.367 169.756 241.43 169.802 241.482 169.86C241.539 169.915 241.585 169.982 241.615 170.056C241.645 170.13 241.66 170.21 241.658 170.29C241.657 170.432 241.616 170.571 241.541 170.69L240.682 172.1L242.468 172.05C242.551 172.045 242.634 172.058 242.712 172.09C242.789 172.121 242.859 172.169 242.917 172.23C243.017 172.35 243.072 172.502 243.072 172.66C243.072 172.818 243.017 172.97 242.917 173.09C242.859 173.151 242.789 173.199 242.712 173.23C242.634 173.262 242.551 173.275 242.468 173.27H240.662L241.463 174.55C241.553 174.705 241.603 174.88 241.609 175.06C241.612 175.141 241.599 175.222 241.57 175.297C241.542 175.373 241.498 175.442 241.443 175.5C241.392 175.556 241.33 175.601 241.261 175.632C241.192 175.663 241.118 175.679 241.043 175.68C240.922 175.677 240.805 175.639 240.704 175.57C240.604 175.501 240.525 175.403 240.477 175.29L239.667 173.82L238.857 175.29C238.809 175.407 238.729 175.508 238.627 175.581C238.525 175.653 238.405 175.695 238.281 175.7Z" fill="black"/>
<path d="M247.24 175.7C247.164 175.7 247.088 175.684 247.017 175.653C246.947 175.622 246.883 175.577 246.83 175.52C246.773 175.461 246.727 175.391 246.697 175.314C246.667 175.236 246.652 175.153 246.655 175.07C246.659 174.93 246.696 174.793 246.762 174.67L247.641 173.27H245.854C245.77 173.275 245.685 173.262 245.606 173.231C245.527 173.2 245.455 173.152 245.396 173.09C245.295 172.97 245.24 172.818 245.24 172.66C245.24 172.502 245.295 172.35 245.396 172.23C245.455 172.168 245.527 172.12 245.606 172.089C245.685 172.058 245.77 172.045 245.854 172.05L247.611 172.1L246.782 170.75C246.703 170.617 246.66 170.465 246.655 170.31C246.652 170.227 246.667 170.144 246.697 170.066C246.727 169.989 246.773 169.919 246.83 169.86C246.885 169.803 246.95 169.757 247.023 169.727C247.095 169.696 247.172 169.68 247.25 169.68C247.359 169.678 247.467 169.71 247.559 169.77C247.651 169.831 247.723 169.918 247.767 170.02L248.626 171.59L249.446 170.09C249.498 169.973 249.58 169.873 249.683 169.801C249.786 169.729 249.907 169.687 250.032 169.68C250.109 169.679 250.185 169.694 250.255 169.725C250.326 169.756 250.389 169.802 250.442 169.86C250.499 169.915 250.544 169.982 250.574 170.056C250.605 170.13 250.619 170.21 250.617 170.29C250.616 170.432 250.575 170.571 250.5 170.69L249.641 172.1L251.427 172.05C251.51 172.045 251.594 172.058 251.671 172.09C251.749 172.121 251.819 172.169 251.876 172.23C251.977 172.35 252.032 172.502 252.032 172.66C252.032 172.818 251.977 172.97 251.876 173.09C251.819 173.151 251.749 173.199 251.671 173.23C251.594 173.262 251.51 173.275 251.427 173.27H249.622L250.422 174.55C250.512 174.705 250.563 174.88 250.569 175.06C250.571 175.141 250.558 175.222 250.53 175.297C250.501 175.373 250.458 175.442 250.403 175.5C250.351 175.556 250.289 175.601 250.22 175.632C250.152 175.663 250.078 175.679 250.002 175.68C249.882 175.677 249.764 175.639 249.664 175.57C249.564 175.501 249.485 175.403 249.436 175.29L248.626 173.82L247.816 175.29C247.768 175.407 247.688 175.508 247.586 175.581C247.484 175.653 247.364 175.695 247.24 175.7Z" fill="black"/>
<path d="M256.2 175.7C256.124 175.7 256.048 175.684 255.977 175.653C255.907 175.622 255.843 175.577 255.79 175.52C255.733 175.461 255.687 175.391 255.657 175.314C255.627 175.236 255.612 175.153 255.615 175.07C255.615 174.929 255.652 174.791 255.722 174.67L256.6 173.27H254.805C254.722 173.274 254.639 173.261 254.561 173.23C254.484 173.199 254.414 173.151 254.356 173.09C254.255 172.97 254.2 172.818 254.2 172.66C254.2 172.502 254.255 172.35 254.356 172.23C254.414 172.169 254.484 172.122 254.561 172.091C254.639 172.059 254.722 172.046 254.805 172.05L256.571 172.1L255.712 170.8C255.634 170.667 255.59 170.515 255.585 170.36C255.583 170.277 255.598 170.194 255.628 170.116C255.658 170.039 255.703 169.969 255.761 169.91C255.816 169.853 255.881 169.807 255.953 169.777C256.025 169.746 256.103 169.73 256.181 169.73C256.29 169.728 256.397 169.76 256.489 169.82C256.581 169.881 256.654 169.968 256.698 170.07L257.557 171.64L258.377 170.14C258.428 170.023 258.51 169.923 258.614 169.851C258.717 169.779 258.837 169.737 258.962 169.73C259.039 169.729 259.115 169.744 259.186 169.775C259.257 169.806 259.32 169.852 259.372 169.91C259.43 169.965 259.475 170.032 259.505 170.106C259.535 170.18 259.55 170.26 259.548 170.34C259.547 170.482 259.506 170.621 259.431 170.74L258.572 172.15L260.358 172.1C260.441 172.095 260.524 172.109 260.602 172.14C260.679 172.171 260.749 172.219 260.807 172.28C260.907 172.4 260.962 172.552 260.962 172.71C260.962 172.868 260.907 173.02 260.807 173.14C260.749 173.202 260.679 173.249 260.602 173.281C260.524 173.312 260.441 173.325 260.358 173.32H258.552L259.353 174.6C259.443 174.755 259.493 174.93 259.499 175.11C259.502 175.191 259.489 175.272 259.46 175.347C259.432 175.423 259.388 175.492 259.333 175.55C259.282 175.606 259.22 175.651 259.151 175.682C259.082 175.713 259.008 175.729 258.933 175.73C258.812 175.727 258.695 175.689 258.595 175.62C258.494 175.551 258.415 175.454 258.367 175.34L257.557 173.87L256.747 175.34C256.694 175.444 256.616 175.531 256.52 175.595C256.424 175.658 256.314 175.694 256.2 175.7Z" fill="black"/>
<path d="M265.16 175.7C265.083 175.7 265.007 175.684 264.937 175.653C264.866 175.622 264.803 175.577 264.75 175.52C264.692 175.461 264.647 175.391 264.616 175.314C264.586 175.236 264.572 175.153 264.574 175.07C264.578 174.93 264.615 174.793 264.681 174.67L265.56 173.27H263.774C263.69 173.276 263.607 173.264 263.529 173.232C263.451 173.201 263.382 173.153 263.325 173.09C263.218 172.973 263.159 172.82 263.159 172.66C263.159 172.5 263.218 172.347 263.325 172.23C263.382 172.167 263.451 172.119 263.529 172.088C263.607 172.056 263.69 172.044 263.774 172.05L265.53 172.1L264.701 170.75C264.623 170.617 264.579 170.465 264.574 170.31C264.571 170.228 264.585 170.147 264.614 170.07C264.642 169.994 264.686 169.924 264.741 169.866C264.797 169.807 264.863 169.76 264.937 169.728C265.01 169.696 265.089 169.68 265.169 169.68C265.279 169.678 265.386 169.71 265.478 169.77C265.57 169.831 265.643 169.918 265.687 170.02L266.545 171.59L267.365 170.09C267.417 169.973 267.499 169.873 267.602 169.801C267.705 169.729 267.826 169.687 267.951 169.68C268.028 169.677 268.105 169.692 268.175 169.723C268.246 169.754 268.309 169.801 268.361 169.86C268.418 169.915 268.463 169.982 268.494 170.056C268.524 170.13 268.538 170.21 268.537 170.29C268.535 170.432 268.495 170.571 268.419 170.69L267.561 172.1L269.347 172.05C269.43 172.045 269.513 172.058 269.59 172.09C269.668 172.121 269.738 172.169 269.796 172.23C269.896 172.35 269.951 172.502 269.951 172.66C269.951 172.818 269.896 172.97 269.796 173.09C269.738 173.151 269.668 173.199 269.59 173.23C269.513 173.261 269.43 173.275 269.347 173.27H267.541L268.341 174.55C268.432 174.704 268.482 174.88 268.488 175.06C268.49 175.139 268.478 175.217 268.451 175.291C268.424 175.365 268.383 175.433 268.33 175.49C268.278 175.548 268.214 175.594 268.144 175.627C268.074 175.659 267.999 175.677 267.922 175.68C267.801 175.677 267.683 175.639 267.583 175.57C267.483 175.5 267.404 175.403 267.356 175.29L266.545 173.82L265.735 175.29C265.687 175.407 265.608 175.508 265.506 175.581C265.404 175.653 265.284 175.695 265.16 175.7Z" fill="black"/>
<path d="M274.12 175.7C274.043 175.7 273.967 175.684 273.897 175.653C273.826 175.622 273.762 175.577 273.71 175.52C273.652 175.461 273.606 175.391 273.576 175.314C273.546 175.236 273.532 175.153 273.534 175.07C273.538 174.93 273.575 174.793 273.641 174.67L274.52 173.27H272.724C272.642 173.275 272.561 173.261 272.485 173.23C272.409 173.199 272.34 173.151 272.285 173.09C272.178 172.973 272.119 172.82 272.119 172.66C272.119 172.5 272.178 172.347 272.285 172.23C272.34 172.169 272.409 172.121 272.485 172.09C272.561 172.059 272.642 172.045 272.724 172.05L274.49 172.1L273.661 170.75C273.583 170.617 273.539 170.465 273.534 170.31C273.531 170.228 273.545 170.147 273.574 170.07C273.602 169.994 273.646 169.924 273.701 169.866C273.757 169.807 273.823 169.76 273.897 169.728C273.97 169.696 274.049 169.68 274.129 169.68C274.239 169.678 274.346 169.71 274.438 169.77C274.53 169.831 274.602 169.918 274.647 170.02L275.505 171.59L276.325 170.09C276.377 169.973 276.459 169.873 276.562 169.801C276.665 169.729 276.786 169.687 276.911 169.68C276.988 169.677 277.065 169.692 277.135 169.723C277.206 169.754 277.269 169.801 277.321 169.86C277.378 169.915 277.423 169.982 277.454 170.056C277.484 170.13 277.498 170.21 277.496 170.29C277.495 170.432 277.455 170.571 277.379 170.69L276.52 172.1L278.307 172.05C278.39 172.045 278.473 172.058 278.55 172.09C278.628 172.121 278.698 172.169 278.756 172.23C278.856 172.35 278.911 172.502 278.911 172.66C278.911 172.818 278.856 172.97 278.756 173.09C278.698 173.151 278.628 173.199 278.55 173.23C278.473 173.261 278.39 173.275 278.307 173.27H276.501L277.301 174.55C277.392 174.704 277.442 174.88 277.448 175.06C277.45 175.139 277.438 175.217 277.411 175.291C277.384 175.365 277.343 175.433 277.29 175.49C277.238 175.548 277.174 175.594 277.104 175.627C277.034 175.659 276.959 175.677 276.882 175.68C276.761 175.677 276.643 175.639 276.543 175.57C276.443 175.5 276.364 175.403 276.316 175.29L275.505 173.82L274.695 175.29C274.647 175.407 274.568 175.508 274.466 175.581C274.364 175.653 274.244 175.695 274.12 175.7Z" fill="black"/>
<path d="M283.04 175.7C282.963 175.7 282.887 175.684 282.817 175.653C282.746 175.622 282.683 175.577 282.63 175.52C282.572 175.461 282.527 175.391 282.497 175.314C282.466 175.236 282.452 175.153 282.454 175.07C282.459 174.93 282.496 174.793 282.562 174.67L283.44 173.27H281.644C281.563 173.275 281.481 173.261 281.405 173.23C281.329 173.199 281.261 173.151 281.205 173.09C281.099 172.973 281.04 172.82 281.04 172.66C281.04 172.5 281.099 172.347 281.205 172.23C281.261 172.169 281.329 172.121 281.405 172.09C281.481 172.059 281.563 172.045 281.644 172.05L283.411 172.1L282.581 170.75C282.503 170.617 282.459 170.465 282.454 170.31C282.452 170.227 282.466 170.144 282.497 170.066C282.527 169.989 282.572 169.919 282.63 169.86C282.685 169.803 282.75 169.757 282.822 169.727C282.894 169.696 282.972 169.68 283.05 169.68C283.159 169.678 283.266 169.71 283.358 169.77C283.45 169.831 283.523 169.918 283.567 170.02L284.426 171.59L285.246 170.09C285.297 169.973 285.379 169.873 285.482 169.801C285.586 169.729 285.706 169.687 285.831 169.68C285.908 169.677 285.985 169.692 286.056 169.723C286.127 169.754 286.19 169.801 286.241 169.86C286.298 169.915 286.344 169.982 286.374 170.056C286.404 170.13 286.419 170.21 286.417 170.29C286.416 170.432 286.375 170.571 286.3 170.69L285.441 172.1L287.227 172.05C287.31 172.045 287.393 172.058 287.471 172.09C287.548 172.121 287.618 172.169 287.676 172.23C287.776 172.35 287.831 172.502 287.831 172.66C287.831 172.818 287.776 172.97 287.676 173.09C287.618 173.151 287.548 173.199 287.471 173.23C287.393 173.261 287.31 173.275 287.227 173.27H285.421L286.222 174.55C286.312 174.704 286.362 174.88 286.368 175.06C286.371 175.141 286.358 175.222 286.329 175.297C286.301 175.373 286.257 175.442 286.202 175.5C286.151 175.556 286.089 175.601 286.02 175.632C285.951 175.663 285.877 175.679 285.802 175.68C285.681 175.677 285.564 175.639 285.463 175.57C285.363 175.5 285.284 175.403 285.236 175.29L284.426 173.82L283.616 175.29C283.568 175.407 283.488 175.508 283.386 175.581C283.284 175.653 283.164 175.695 283.04 175.7Z" fill="black"/>
<path d="M313.745 197.82H325.682" stroke="white" stroke-width="3" stroke-linecap="round" stroke-linejoin="round"/>
<path d="M148.186 107.77V189C148.186 191.352 149.098 193.609 150.722 195.272C152.345 196.936 154.547 197.87 156.843 197.87H302.414" stroke="white" stroke-width="3" stroke-linecap="round" stroke-linejoin="round"/>
<path d="M148.186 86.23V98.41" stroke="white" stroke-width="3" stroke-linecap="round" stroke-linejoin="round"/>
</svg>
